<svg width="816" height="223" viewBox="0 0 816 223" fill="none" xmlns="http://www.w3.org/2000/svg">
<path d="M816 0H0V223H816V0Z" fill="#BA4473"/>
<path d="M816 180.89C765.59 171.19 715.179 161.452 660.235 154.167C605.291 146.883 545.904 142.088 503.926 127.928C462.038 113.767 437.558 90.2778 418.971 67.4203C400.294 44.5257 387.51 22.2628 374.726 0H816V180.89Z" fill="#C63F73"/>
<path d="M816.001 135.695C778.193 128.374 740.385 121.089 699.131 115.625C657.969 110.162 613.361 106.557 581.99 95.9272C550.529 85.3347 532.214 67.7177 518.251 50.5467C504.289 33.4128 494.587 16.6878 484.977 0H816.001V135.695Z" fill="#DD3270"/>
<path d="M816 90.4637C790.795 85.5948 765.589 80.726 738.117 77.0837C710.645 73.4413 680.907 71.0255 659.963 63.9638C639.019 56.9022 626.779 45.1575 617.44 33.7102C608.192 22.2628 601.755 11.15 595.317 0H816V90.4637Z" fill="#F41B6A"/>
<path d="M816.001 45.2318C803.398 42.7788 790.795 40.363 777.014 38.5418C763.323 36.7207 748.454 35.5313 738.027 31.9633C727.51 28.4325 721.435 22.5602 716.721 16.8365C712.097 11.15 708.833 5.575 705.659 0H816.001V45.2318Z" fill="#FF0066"/>
<path d="M0 42.1099C46.6027 54.0032 93.2053 65.8965 152.32 72.252C211.435 78.6075 283.061 79.4252 312.075 95.0724C340.997 110.72 327.307 141.196 341.723 164.983C356.229 188.77 398.752 205.866 441.275 223H0V42.1099Z" fill="#C63F73"/>
<path d="M0 87.3044C34.9067 96.2616 69.904 105.182 114.24 109.939C158.576 114.696 212.341 115.328 234.011 127.073C255.771 138.78 245.525 161.638 256.315 179.478C267.104 197.318 299.109 210.177 331.024 223H0V87.3044Z" fill="#DD3270"/>
<path d="M0 132.536C23.3013 138.483 46.6027 144.467 76.16 147.626C105.717 150.822 141.531 151.231 156.037 159.036C170.544 166.841 163.653 182.08 170.907 193.973C178.069 205.866 199.376 214.452 220.683 223H0V132.536Z" fill="#F41B6A"/>
<path d="M0 177.768C11.6053 180.742 23.3013 183.715 38.08 185.313C52.8587 186.911 70.8107 187.097 77.9733 191.037C85.2267 194.939 81.872 202.558 85.408 208.505C89.0347 214.452 99.7333 218.726 110.341 223H0V177.768Z" fill="#FF0066"/>
</svg>
