<svg id="visual" viewBox="0 0 960 540" width="960" height="540" xmlns="http://www.w3.org/2000/svg" xmlns:xlink="http://www.w3.org/1999/xlink" version="1.1"><path d="M0 467L137 407L274 411L411 434L549 412L686 475L823 417L960 480L960 541L823 541L686 541L549 541L411 541L274 541L137 541L0 541Z" fill="#3e3be8"></path><path d="M0 486L137 453L274 453L411 471L549 479L686 449L823 483L960 452L960 541L823 541L686 541L549 541L411 541L274 541L137 541L0 541Z" fill="#3f3fc4"></path><path d="M0 493L137 483L274 494L411 466L549 472L686 459L823 497L960 457L960 541L823 541L686 541L549 541L411 541L274 541L137 541L0 541Z" fill="#41409f"></path><path d="M0 480L137 510L274 474L411 503L549 498L686 474L823 510L960 488L960 541L823 541L686 541L549 541L411 541L274 541L137 541L0 541Z" fill="#413f7a"></path><path d="M0 520L137 519L274 518L411 507L549 498L686 516L823 507L960 514L960 541L823 541L686 541L549 541L411 541L274 541L137 541L0 541Z" fill="#3f3d56"></path></svg>