<svg width="1440" height="528" viewBox="0 0 1440 528" fill="none" xmlns="http://www.w3.org/2000/svg">
<g id="wave-haikei 1">
<path id="Vector" d="M0 37.84L34.4 36.256C68.8 34.584 137.6 31.416 206.08 35.464C274.72 39.6 342.88 51.04 411.52 51.48C480 51.92 548.8 41.36 617.28 40.04C685.92 38.72 754.08 46.64 822.72 52.096C891.2 57.464 960 60.456 1028.48 63.36C1097.12 66.264 1165.28 69.256 1233.92 70.664C1302.4 72.16 1371.2 72.16 1405.6 72.16H1440V0H1405.6C1371.2 0 1302.4 0 1233.92 0C1165.28 0 1097.12 0 1028.48 0C960 0 891.2 0 822.72 0C754.08 0 685.92 0 617.28 0C548.8 0 480 0 411.52 0C342.88 0 274.72 0 206.08 0C137.6 0 68.8 0 34.4 0H0V37.84Z" fill="#3E3BE8"/>
</g>
</svg>
