<svg width="120" height="35" viewBox="0 0 120 35" fill="none" xmlns="http://www.w3.org/2000/svg">
<g id="testlogo 1" clip-path="url(#clip0_141_205)">
<g id="testlogo">
<path id="Rectangle 34" d="M114.767 0H5.23256C2.3427 0 0 2.3427 0 5.23256V28.9535C0 31.8433 2.3427 34.186 5.23256 34.186H114.767C117.657 34.186 120 31.8433 120 28.9535V5.23256C120 2.3427 117.657 0 114.767 0Z" fill="#3E3BE8"/>
<path id="Rectangle 35" d="M11.5117 10.1163C11.5117 9.15297 10.7308 8.37207 9.7675 8.37207C8.80421 8.37207 8.02332 9.15297 8.02332 10.1163V26.8604C8.02332 27.8237 8.80421 28.6046 9.7675 28.6046C10.7308 28.6046 11.5117 27.8237 11.5117 26.8604V10.1163Z" fill="white"/>
<path id="Rectangle 36" d="M36.9768 10.1163C36.9768 9.15297 36.1959 8.37207 35.2326 8.37207C34.2693 8.37207 33.4884 9.15297 33.4884 10.1163V26.8604C33.4884 27.8237 34.2693 28.6046 35.2326 28.6046C36.1959 28.6046 36.9768 27.8237 36.9768 26.8604V10.1163Z" fill="white"/>
<path id="Rectangle 37" d="M25.814 3.83731C24.8507 3.83731 24.0698 4.61821 24.0698 5.5815C24.0698 6.54478 24.8507 7.32568 25.814 7.32568L44.6512 7.32568C45.6145 7.32568 46.3954 6.54478 46.3954 5.5815C46.3954 4.61821 45.6145 3.83731 44.6512 3.83731L25.814 3.83731Z" fill="#FF2323"/>
<g id="Group 68">
<path id="Rectangle 38" d="M99.7674 5.58134C99.7674 4.61806 98.9865 3.83716 98.0232 3.83716C97.0599 3.83716 96.2791 4.61806 96.2791 5.58134V26.8604C96.2791 27.8237 97.0599 28.6046 98.0232 28.6046C98.9865 28.6046 99.7674 27.8237 99.7674 26.8604V5.58134Z" fill="white"/>
<path id="Rectangle 39" d="M110.93 5.58134C110.93 4.61806 110.149 3.83716 109.186 3.83716C108.223 3.83716 107.442 4.61806 107.442 5.58134V26.8604C107.442 27.8237 108.223 28.6046 109.186 28.6046C110.149 28.6046 110.93 27.8237 110.93 26.8604V5.58134Z" fill="white"/>
<path id="Rectangle 40" d="M102.209 14.651C101.246 14.651 100.465 15.4319 100.465 16.3952C100.465 17.3585 101.246 18.1394 102.209 18.1394H105C105.963 18.1394 106.744 17.3585 106.744 16.3952C106.744 15.4319 105.963 14.651 105 14.651H102.209Z" fill="#FF2323"/>
</g>
<path id="n" d="M23.9819 8.63721C25.6898 8.63721 27.0335 8.98884 28.0131 9.69209C28.9926 10.3953 29.6833 11.3372 30.0851 12.5177C30.5121 13.6981 30.7256 15.0167 30.7256 16.4735V27.06C30.7256 27.487 30.5749 27.8512 30.2735 28.1526C29.9972 28.454 29.6456 28.6047 29.2186 28.6047C28.7917 28.6047 28.4275 28.454 28.1261 28.1526C27.8498 27.8512 27.7117 27.487 27.7117 27.06V16.5488C27.7117 15.5944 27.561 14.7405 27.2596 13.987C26.9833 13.2084 26.5061 12.593 25.8279 12.1409C25.1749 11.6637 24.2707 11.4251 23.1154 11.4251C22.0605 11.4251 21.0935 11.6637 20.2144 12.1409C19.3354 12.593 18.6321 13.2084 18.1047 13.987C17.5772 14.7405 17.3135 15.5944 17.3135 16.5488V27.06C17.3135 27.487 17.1628 27.8512 16.8614 28.1526C16.5851 28.454 16.2335 28.6047 15.8065 28.6047C15.3796 28.6047 15.0154 28.454 14.714 28.1526C14.4377 27.8512 14.2996 27.487 14.2996 27.06V10.634C14.2996 10.207 14.4377 9.85535 14.714 9.57907C15.0154 9.27767 15.3796 9.12697 15.8065 9.12697C16.2586 9.12697 16.6228 9.27767 16.8991 9.57907C17.1754 9.85535 17.3135 10.207 17.3135 10.634V13.3088L16.56 14.1377C16.6856 13.4847 16.9744 12.8316 17.4265 12.1786C17.8786 11.5005 18.4437 10.8977 19.1219 10.3702C19.8 9.84279 20.5535 9.42837 21.3824 9.12697C22.2112 8.80046 23.0777 8.63721 23.9819 8.63721Z" fill="white"/>
<path id="o" d="M58.2627 18.8093C58.2627 20.7684 57.8232 22.514 56.9441 24.046C56.0902 25.5781 54.9223 26.7837 53.4404 27.6628C51.9837 28.5419 50.3386 28.9814 48.5051 28.9814C46.6716 28.9814 45.0139 28.5419 43.532 27.6628C42.0502 26.7837 40.8697 25.5781 39.9906 24.046C39.1367 22.514 38.7097 20.7684 38.7097 18.8093C38.7097 16.8502 39.1367 15.1047 39.9906 13.5726C40.8697 12.0405 42.0502 10.8349 43.532 9.95581C45.0139 9.07674 46.6716 8.63721 48.5051 8.63721C50.3386 8.63721 51.9837 9.07674 53.4404 9.95581C54.9223 10.8349 56.0902 12.0405 56.9441 13.5726C57.8232 15.1047 58.2627 16.8502 58.2627 18.8093ZM55.2488 18.8093C55.2488 17.3526 54.9474 16.0716 54.3446 14.9665C53.7669 13.8614 52.9632 12.9949 51.9334 12.367C50.9288 11.7391 49.786 11.4251 48.5051 11.4251C47.2241 11.4251 46.0688 11.7391 45.039 12.367C44.0344 12.9949 43.2306 13.8614 42.6279 14.9665C42.0251 16.0716 41.7237 17.3526 41.7237 18.8093C41.7237 20.2409 42.0251 21.5093 42.6279 22.6144C43.2306 23.7195 44.0344 24.5986 45.039 25.2516C46.0688 25.8795 47.2241 26.1935 48.5051 26.1935C49.786 26.1935 50.9288 25.8795 51.9334 25.2516C52.9632 24.5986 53.7669 23.7195 54.3446 22.6144C54.9474 21.5093 55.2488 20.2409 55.2488 18.8093Z" fill="white"/>
<path id="u" d="M73.8796 9.12695C74.3316 9.12695 74.6958 9.27765 74.9721 9.57905C75.2484 9.85532 75.3865 10.207 75.3865 10.6339V20.919C75.3865 23.4558 74.6707 25.4274 73.2391 26.8339C71.8326 28.2153 69.861 28.906 67.3242 28.906C64.8126 28.906 62.841 28.2153 61.4093 26.8339C60.0028 25.4274 59.2996 23.4558 59.2996 20.919V10.6339C59.2996 10.207 59.4377 9.85532 59.714 9.57905C60.0154 9.27765 60.3796 9.12695 60.8065 9.12695C61.2586 9.12695 61.6228 9.27765 61.8991 9.57905C62.1754 9.85532 62.3135 10.207 62.3135 10.6339V20.919C62.3135 22.627 62.753 23.9204 63.6321 24.7995C64.5112 25.6786 65.7419 26.1181 67.3242 26.1181C68.9568 26.1181 70.2 25.6786 71.054 24.7995C71.933 23.9204 72.3726 22.627 72.3726 20.919V10.6339C72.3726 10.207 72.5107 9.85532 72.787 9.57905C73.0884 9.27765 73.4526 9.12695 73.8796 9.12695Z" fill="#FF2323"/>
<path id="c" d="M87.4995 8.63721C88.7805 8.63721 89.9358 8.77535 90.9656 9.05163C91.9954 9.3279 92.8116 9.70465 93.4144 10.1819C94.0172 10.6591 94.3186 11.1991 94.3186 11.8019C94.3186 12.1284 94.2056 12.4423 93.9795 12.7437C93.7535 13.0451 93.4521 13.1958 93.0754 13.1958C92.7237 13.1958 92.4349 13.133 92.2088 13.0074C92.0079 12.8819 91.807 12.7186 91.6061 12.5177C91.4302 12.3167 91.1791 12.1409 90.8526 11.9902C90.5512 11.8144 90.1116 11.6763 89.534 11.5758C88.9563 11.4753 88.3786 11.4251 87.8009 11.4251C86.4195 11.4251 85.2014 11.7516 84.1465 12.4047C83.1168 13.0577 82.3005 13.9367 81.6977 15.0419C81.0949 16.147 80.7935 17.4028 80.7935 18.8093C80.7935 20.2158 81.0823 21.4716 81.66 22.5767C82.2377 23.6819 83.0414 24.5609 84.0712 25.214C85.1009 25.867 86.294 26.1935 87.6502 26.1935C88.5293 26.1935 89.2326 26.1181 89.76 25.9674C90.2875 25.8167 90.727 25.6409 91.0786 25.44C91.5307 25.1888 91.8698 24.9377 92.0958 24.6865C92.347 24.4353 92.6735 24.3098 93.0754 24.3098C93.5023 24.3098 93.8288 24.4479 94.0549 24.7242C94.3061 25.0005 94.4316 25.3395 94.4316 25.7414C94.4316 26.1935 94.1177 26.6707 93.4898 27.173C92.8619 27.6754 92.0079 28.1023 90.9279 28.454C89.873 28.8056 88.6675 28.9814 87.3112 28.9814C85.4023 28.9814 83.7321 28.5419 82.3005 27.6628C80.8688 26.7586 79.7512 25.5405 78.9474 24.0084C78.1688 22.4512 77.7795 20.7181 77.7795 18.8093C77.7795 16.9005 78.1814 15.18 78.9851 13.6479C79.814 12.1158 80.9567 10.8977 82.4135 9.99349C83.8702 9.0893 85.5656 8.63721 87.4995 8.63721Z" fill="white"/>
</g>
</g>
<defs>
<clipPath id="clip0_141_205">
<rect width="120" height="34.186" fill="white"/>
</clipPath>
</defs>
</svg>
