<svg width="140" height="52" viewBox="0 0 140 52" fill="none" xmlns="http://www.w3.org/2000/svg">
<g id="logoDark" clip-path="url(#clip0_125_74)">
<g id="Logo Concept">
<path id="Rectangle 27" d="M5.26731 13.0298H3.60394C2.07286 13.0298 0.831665 14.271 0.831665 15.8021V47.6833C0.831665 49.2143 2.07286 50.4555 3.60394 50.4555H5.26731C6.7984 50.4555 8.03959 49.2143 8.03959 47.6833V15.8021C8.03959 14.271 6.7984 13.0298 5.26731 13.0298Z" fill="#3F3D56"/>
<path id="Rectangle 30" d="M118.931 13.5842H117.267C115.736 13.5842 114.495 14.8254 114.495 16.3565V48.2377C114.495 49.7688 115.736 51.01 117.267 51.01H118.931C120.462 51.01 121.703 49.7688 121.703 48.2377V16.3565C121.703 14.8254 120.462 13.5842 118.931 13.5842Z" fill="#3F3D56"/>
<path id="Rectangle 31" d="M137.228 13.5842H135.564C134.033 13.5842 132.792 14.8254 132.792 16.3565V48.2377C132.792 49.7688 134.033 51.01 135.564 51.01H137.228C138.759 51.01 140 49.7688 140 48.2377V16.3565C140 14.8254 138.759 13.5842 137.228 13.5842Z" fill="#3E3BE8"/>
<path id="Ellipse 6" d="M4.43564 8.87129C6.88538 8.87129 8.87129 6.88538 8.87129 4.43564C8.87129 1.98591 6.88538 0 4.43564 0C1.98591 0 0 1.98591 0 4.43564C0 6.88538 1.98591 8.87129 4.43564 8.87129Z" fill="#3E3BE8"/>
<path id="n" d="M22.6356 28.0693C24.6871 28.0693 26.2396 28.499 27.293 29.3584C28.3742 30.2179 29.1089 31.3683 29.497 32.8099C29.9129 34.2238 30.1208 35.804 30.1208 37.5505V48.1961C30.1208 48.9169 29.8851 49.5268 29.4138 50.0258C28.9426 50.4971 28.3465 50.7327 27.6257 50.7327C26.9049 50.7327 26.3089 50.4971 25.8376 50.0258C25.3663 49.5268 25.1307 48.9169 25.1307 48.1961V37.5505C25.1307 36.6357 25.0059 35.8178 24.7564 35.0971C24.5346 34.3485 24.1188 33.7525 23.5089 33.3089C22.899 32.8654 22.0257 32.6436 20.8891 32.6436C19.7802 32.6436 18.8376 32.8654 18.0614 33.3089C17.3129 33.7525 16.7307 34.3485 16.3148 35.0971C15.9267 35.8178 15.7327 36.6357 15.7327 37.5505V48.1961C15.7327 48.9169 15.497 49.5268 15.0257 50.0258C14.5544 50.4971 13.9584 50.7327 13.2376 50.7327C12.5168 50.7327 11.9208 50.4971 11.4495 50.0258C10.9782 49.5268 10.7426 48.9169 10.7426 48.1961V31.0218C10.7426 30.301 10.9782 29.705 11.4495 29.2337C11.9208 28.7347 12.5168 28.4852 13.2376 28.4852C13.9584 28.4852 14.5544 28.7347 15.0257 29.2337C15.497 29.705 15.7327 30.301 15.7327 31.0218V32.8099L15.1089 32.6852C15.3584 32.2139 15.7188 31.7149 16.1901 31.1881C16.6614 30.6337 17.2158 30.1208 17.8534 29.6495C18.4911 29.1782 19.2119 28.804 20.0158 28.5268C20.8198 28.2218 21.693 28.0693 22.6356 28.0693Z" fill="#3F3D56"/>
<path id="o" d="M64.0663 40.3512C64.0663 42.5335 63.5739 44.463 62.5892 46.1397C61.6311 47.7897 60.327 49.0805 58.677 50.012C57.0535 50.9435 55.2305 51.4092 53.2078 51.4092C51.1852 51.4092 49.3488 50.9435 47.6988 50.012C46.0753 49.0805 44.7712 47.7897 43.7865 46.1397C42.8284 44.463 42.3494 42.5335 42.3494 40.3512C42.3494 38.1688 42.8284 36.2526 43.7865 34.6026C44.7712 32.9259 46.0753 31.6218 47.6988 30.6903C49.3488 29.7322 51.1852 29.2532 53.2078 29.2532C55.2305 29.2532 57.0535 29.7322 58.677 30.6903C60.327 31.6218 61.6311 32.9259 62.5892 34.6026C63.5739 36.2526 64.0663 38.1688 64.0663 40.3512ZM59.2758 40.3512C59.2758 38.9938 58.9963 37.8228 58.4374 36.8381C57.9052 35.8268 57.1733 35.0417 56.2418 34.4828C55.3369 33.9239 54.3256 33.6445 53.2078 33.6445C52.09 33.6445 51.0654 33.9239 50.1339 34.4828C49.229 35.0417 48.4972 35.8268 47.9383 36.8381C47.406 37.8228 47.1399 38.9938 47.1399 40.3512C47.1399 41.6818 47.406 42.8529 47.9383 43.8642C48.4972 44.8489 49.229 45.6207 50.1339 46.1796C51.0654 46.7385 52.09 47.0179 53.2078 47.0179C54.3256 47.0179 55.3369 46.7385 56.2418 46.1796C57.1733 45.6207 57.9052 44.8489 58.4374 43.8642C58.9963 42.8529 59.2758 41.6818 59.2758 40.3512Z" fill="#3F3D56"/>
<path id="u" d="M83.3147 29.6523C84.0067 29.6523 84.5789 29.8919 85.0313 30.3709C85.4838 30.8234 85.71 31.3956 85.71 32.0875V42.2274C85.71 45.0485 84.9249 47.284 83.3547 48.9341C81.7844 50.5841 79.5223 51.4092 76.5681 51.4092C73.614 51.4092 71.3518 50.5841 69.7816 48.9341C68.238 47.284 67.4662 45.0485 67.4662 42.2274V32.0875C67.4662 31.3956 67.6924 30.8234 68.1448 30.3709C68.5973 29.8919 69.1695 29.6523 69.8614 29.6523C70.5534 29.6523 71.1256 29.8919 71.578 30.3709C72.0305 30.8234 72.2567 31.3956 72.2567 32.0875V42.2274C72.2567 43.8508 72.616 45.0618 73.3345 45.8602C74.0531 46.632 75.131 47.0179 76.5681 47.0179C78.0319 47.0179 79.1231 46.632 79.8416 45.8602C80.5602 45.0618 80.9195 43.8508 80.9195 42.2274V32.0875C80.9195 31.3956 81.1457 30.8234 81.5981 30.3709C82.0506 29.8919 82.6228 29.6523 83.3147 29.6523Z" fill="#3F3D56"/>
<path id="c" d="M101.086 29.2532C102.603 29.2532 103.92 29.4129 105.038 29.7322C106.183 30.0516 107.061 30.504 107.673 31.0895C108.312 31.6484 108.631 32.3271 108.631 33.1255C108.631 33.6578 108.471 34.1634 108.152 34.6425C107.833 35.0949 107.367 35.3211 106.755 35.3211C106.329 35.3211 105.97 35.2679 105.677 35.1615C105.411 35.0284 105.171 34.8687 104.958 34.6824C104.745 34.4961 104.493 34.3231 104.2 34.1634C103.934 34.0037 103.521 33.884 102.962 33.8041C102.43 33.6977 102.031 33.6445 101.765 33.6445C100.407 33.6445 99.2497 33.9372 98.2916 34.5227C97.3601 35.1082 96.6416 35.9066 96.1359 36.918C95.6302 37.9027 95.3774 39.0471 95.3774 40.3512C95.3774 41.6286 95.6302 42.773 96.1359 43.7843C96.6682 44.7691 97.3868 45.5542 98.2916 46.1397C99.2231 46.7252 100.288 47.0179 101.485 47.0179C102.151 47.0179 102.723 46.978 103.202 46.8982C103.681 46.8183 104.08 46.6986 104.4 46.5389C104.772 46.326 105.105 46.0997 105.398 45.8602C105.69 45.6207 106.129 45.5009 106.715 45.5009C107.407 45.5009 107.939 45.7272 108.312 46.1796C108.684 46.6054 108.871 47.1377 108.871 47.7764C108.871 48.4418 108.498 49.0539 107.753 49.6128C107.008 50.1451 106.023 50.5842 104.799 50.9302C103.601 51.2495 102.297 51.4092 100.886 51.4092C98.784 51.4092 96.9609 50.9302 95.4173 49.9721C93.8737 48.9874 92.6761 47.6567 91.8245 45.98C90.9994 44.3033 90.5869 42.427 90.5869 40.3512C90.5869 38.1688 91.026 36.2526 91.9043 34.6026C92.8092 32.9259 94.0467 31.6218 95.6169 30.6903C97.2138 29.7322 99.0368 29.2532 101.086 29.2532Z" fill="#3E3BE8"/>
<path id="Rectangle 28" d="M47.1287 17.7427H26.0594C24.5283 17.7427 23.2871 18.9839 23.2871 20.515C23.2871 22.046 24.5283 23.2872 26.0594 23.2872H47.1287C48.6598 23.2872 49.901 22.046 49.901 20.515C49.901 18.9839 48.6598 17.7427 47.1287 17.7427Z" fill="#3F3D56"/>
<path id="Rectangle 29" d="M36.8713 24.9504H36.3168C34.7857 24.9504 33.5446 26.1916 33.5446 27.7227V47.9603C33.5446 49.4914 34.7857 50.7326 36.3168 50.7326H36.8713C38.4024 50.7326 39.6436 49.4914 39.6436 47.9603V27.7227C39.6436 26.1916 38.4024 24.9504 36.8713 24.9504Z" fill="#3E3BE8"/>
<path id="Rectangle 32" d="M129.604 30.2178H124.891C123.743 30.2178 122.812 31.1487 122.812 32.297C122.812 33.4453 123.743 34.3762 124.891 34.3762H129.604C130.752 34.3762 131.683 33.4453 131.683 32.297C131.683 31.1487 130.752 30.2178 129.604 30.2178Z" fill="#3E3BE8"/>
</g>
</g>
<defs>
<clipPath id="clip0_125_74">
<rect width="140" height="51.5644" fill="white"/>
</clipPath>
</defs>
</svg>
