<svg width="320" height="299" viewBox="0 0 320 299" fill="none" xmlns="http://www.w3.org/2000/svg">
<g id="resumeill" clip-path="url(#clip0_7_106)">
<path id="Vector" d="M150.863 2.49242L141.071 7.83512L20.4324 73.6583L10.6404 79.001C5.88907 81.6004 2.36282 85.9784 0.835302 91.1744C-0.692215 96.3705 -0.0962534 101.96 2.49244 106.717L92.3294 271.368C94.9288 276.119 99.3067 279.646 104.503 281.173C109.699 282.701 115.289 282.105 120.046 279.516L120.071 279.502L260.243 203.021L260.269 203.008C265.02 200.408 268.546 196.03 270.074 190.834C271.601 185.638 271.005 180.048 268.417 175.291L178.58 10.6405C175.98 5.88911 171.602 2.36285 166.406 0.835317C161.21 -0.692214 155.62 -0.0962649 150.863 2.49242V2.49242Z" fill="#F2F2F2"/>
<path id="Vector_2" d="M153.68 7.65472L142.082 13.9828L25.0548 77.8354L13.4571 84.1634C10.0735 86.0145 7.5624 89.1321 6.47461 92.8323C5.38682 96.5326 5.81122 100.513 7.6547 103.901L97.4916 268.552C99.3427 271.935 102.46 274.446 106.161 275.534C109.861 276.622 113.841 276.197 117.229 274.354L117.254 274.34L257.427 197.859L257.452 197.845C260.836 195.994 263.347 192.876 264.434 189.176C265.522 185.476 265.098 181.495 263.254 178.108L173.417 13.4572C171.566 10.0737 168.449 7.56253 164.749 6.47473C161.048 5.38692 157.068 5.81129 153.68 7.65472V7.65472Z" fill="white"/>
<path id="Vector_3" d="M155.614 58.7623L103.335 87.2867C102.543 87.7189 101.612 87.8187 100.746 87.5642C99.8805 87.3098 99.1515 86.7219 98.7193 85.9299C98.2872 85.1379 98.1874 84.2067 98.4419 83.3411C98.6963 82.4755 99.2842 81.7465 100.076 81.3143L152.355 52.7899C153.147 52.3577 154.078 52.2579 154.944 52.5124C155.809 52.7668 156.538 53.3547 156.971 54.1467C157.403 54.9387 157.503 55.8699 157.248 56.7355C156.994 57.6011 156.406 58.3301 155.614 58.7623H155.614Z" fill="#F2F2F2"/>
<path id="Vector_4" d="M173.431 62.1197L108.834 97.3652C108.042 97.7973 107.111 97.8971 106.245 97.6426C105.379 97.3882 104.65 96.8003 104.218 96.0083C103.786 95.2163 103.686 94.2851 103.941 93.4195C104.195 92.5539 104.783 91.8249 105.575 91.3928L170.172 56.1473C170.564 55.9333 170.995 55.7987 171.439 55.7511C171.883 55.7035 172.332 55.7438 172.761 55.8698C173.189 55.9958 173.589 56.205 173.937 56.4854C174.285 56.7658 174.574 57.112 174.788 57.5041C175.002 57.8963 175.136 58.3267 175.184 58.7709C175.231 59.2151 175.191 59.6643 175.065 60.0929C174.939 60.5215 174.73 60.9211 174.45 61.2688C174.169 61.6166 173.823 61.9057 173.431 62.1197H173.431Z" fill="#F2F2F2"/>
<path id="Vector_5" d="M81.8426 75.4131L33.6445 101.711C33.2651 101.918 32.9835 102.267 32.8616 102.682C32.7397 103.097 32.7875 103.543 32.9944 103.923L53.5184 141.538C53.7255 141.918 54.0748 142.199 54.4895 142.321C54.9042 142.443 55.3504 142.395 55.7299 142.188L103.928 115.891C104.307 115.683 104.589 115.334 104.711 114.919C104.833 114.505 104.785 114.059 104.578 113.679L84.0541 76.0633C83.847 75.6839 83.4977 75.4022 83.083 75.2803C82.6683 75.1584 82.2221 75.2061 81.8426 75.4131V75.4131Z" fill="#F2F2F2"/>
<path id="Vector_6" d="M181.553 106.491L110.643 145.18C110.251 145.394 109.821 145.529 109.377 145.577C108.932 145.624 108.483 145.584 108.055 145.458C107.626 145.332 107.227 145.123 106.879 144.842C106.531 144.562 106.242 144.216 106.028 143.824C105.814 143.431 105.679 143.001 105.632 142.557C105.584 142.113 105.624 141.663 105.75 141.235C105.876 140.806 106.086 140.407 106.366 140.059C106.646 139.711 106.993 139.422 107.385 139.208L178.294 100.518C179.086 100.086 180.018 99.9862 180.883 100.241C181.749 100.495 182.478 101.083 182.91 101.875C183.342 102.667 183.442 103.598 183.188 104.464C182.933 105.329 182.345 106.058 181.553 106.491H181.553Z" fill="#F2F2F2"/>
<path id="Vector_7" d="M199.37 109.848L116.142 155.259C115.35 155.691 114.419 155.791 113.554 155.536C112.688 155.282 111.959 154.694 111.527 153.902C111.095 153.11 110.995 152.179 111.249 151.313C111.504 150.448 112.092 149.719 112.884 149.286L196.112 103.876C196.904 103.443 197.835 103.344 198.7 103.598C199.566 103.853 200.295 104.44 200.727 105.232C201.159 106.024 201.259 106.956 201.005 107.821C200.75 108.687 200.162 109.416 199.37 109.848H199.37Z" fill="#F2F2F2"/>
<path id="Vector_8" d="M83.6377 176.866C91.6083 176.866 98.0698 170.405 98.0698 162.434C98.0698 154.463 91.6083 148.002 83.6377 148.002C75.667 148.002 69.2056 154.463 69.2056 162.434C69.2056 170.405 75.667 176.866 83.6377 176.866Z" fill="#F2F2F2"/>
<path id="Vector_9" d="M299.572 70.3363H139.835C134.419 70.3424 129.227 72.4966 125.397 76.3262C121.567 80.1559 119.413 85.3482 119.407 90.7642V278.329C119.413 283.745 121.567 288.937 125.397 292.767C129.227 296.596 134.419 298.751 139.835 298.757H299.572C304.988 298.751 310.181 296.596 314.01 292.767C317.84 288.937 319.994 283.745 320 278.329V90.7642C319.994 85.3482 317.84 80.1559 314.01 76.3262C310.181 72.4966 304.988 70.3424 299.572 70.3363V70.3363Z" fill="#E6E6E6"/>
<path id="Vector_10" d="M299.572 76.217H139.835C135.978 76.2214 132.281 77.7554 129.553 80.4826C126.826 83.2097 125.292 86.9073 125.288 90.7641V278.329C125.292 282.186 126.826 285.883 129.553 288.61C132.281 291.338 135.978 292.872 139.835 292.876H299.572C303.429 292.872 307.127 291.338 309.854 288.61C312.581 285.883 314.115 282.186 314.119 278.329V90.7641C314.115 86.9074 312.581 83.2098 309.854 80.4826C307.127 77.7554 303.429 76.2214 299.572 76.217V76.217Z" fill="white"/>
<path id="Vector_11" d="M276.791 122.007H217.237C216.334 122.007 215.469 121.649 214.831 121.011C214.193 120.373 213.835 119.508 213.835 118.605C213.835 117.703 214.193 116.838 214.831 116.2C215.469 115.562 216.334 115.204 217.237 115.204H276.791C277.238 115.203 277.681 115.291 278.094 115.461C278.507 115.632 278.883 115.883 279.199 116.199C279.515 116.515 279.766 116.89 279.937 117.303C280.109 117.716 280.197 118.158 280.197 118.605C280.197 119.052 280.109 119.495 279.937 119.908C279.766 120.321 279.515 120.696 279.199 121.012C278.883 121.328 278.507 121.579 278.094 121.749C277.681 121.92 277.238 122.008 276.791 122.007Z" fill="#6C63FF"/>
<path id="Vector_12" d="M290.823 133.488H217.237C216.334 133.488 215.469 133.13 214.831 132.492C214.193 131.854 213.835 130.989 213.835 130.086C213.835 129.184 214.193 128.319 214.831 127.681C215.469 127.043 216.334 126.685 217.237 126.685H290.823C291.726 126.685 292.591 127.043 293.229 127.681C293.867 128.319 294.225 129.184 294.225 130.086C294.225 130.989 293.867 131.854 293.229 132.492C292.591 133.13 291.726 133.488 290.823 133.488V133.488Z" fill="#6C63FF"/>
<path id="Vector_13" d="M204.057 101.29H149.151C148.719 101.29 148.305 101.462 147.999 101.768C147.693 102.073 147.522 102.488 147.521 102.92V145.771C147.522 146.203 147.693 146.617 147.999 146.923C148.305 147.229 148.719 147.401 149.151 147.401H204.057C204.489 147.401 204.904 147.229 205.21 146.923C205.515 146.617 205.687 146.203 205.687 145.771V102.92C205.687 102.488 205.515 102.073 205.21 101.768C204.904 101.462 204.489 101.29 204.057 101.29V101.29Z" fill="#E6E6E6"/>
<path id="Vector_14" d="M164.212 127.603C164.235 131.221 162.902 134.715 160.475 137.398C158.075 140.033 154.5 141.781 150.894 141.058C147.573 140.392 144.874 137.489 145.21 133.978C145.266 133.217 145.487 132.478 145.858 131.811C146.229 131.145 146.741 130.567 147.358 130.119C147.975 129.671 148.682 129.362 149.43 129.215C150.179 129.068 150.95 129.086 151.691 129.268C154.846 130.087 156.103 134.634 153.474 136.768C152.843 137.28 151.937 136.385 152.573 135.868C154.311 134.457 153.774 131.37 151.677 130.596C149.234 129.695 146.647 131.633 146.471 134.13C146.263 137.09 148.531 139.32 151.312 139.845C154.32 140.413 157.303 138.873 159.342 136.747C161.679 134.279 162.968 131.002 162.939 127.603C162.945 127.438 163.014 127.282 163.133 127.167C163.252 127.052 163.411 126.988 163.576 126.988C163.741 126.988 163.9 127.052 164.018 127.167C164.137 127.282 164.207 127.438 164.212 127.603V127.603Z" fill="#2F2E41"/>
<path id="Vector_15" d="M176.647 135.699C189.194 135.699 199.364 125.528 199.364 112.981C199.364 100.435 189.194 90.2635 176.647 90.2635C164.1 90.2635 153.93 100.435 153.93 112.981C153.93 125.528 164.1 135.699 176.647 135.699Z" fill="#6C63FF"/>
<path id="Vector_16" d="M175.485 122.674L175.461 121.825C177.04 121.781 178.433 121.682 179.479 120.918C179.776 120.689 180.02 120.399 180.194 120.067C180.368 119.735 180.469 119.37 180.49 118.996C180.508 118.767 180.474 118.537 180.389 118.324C180.304 118.111 180.171 117.921 180.001 117.767C179.306 117.181 178.188 117.37 177.374 117.744L176.672 118.066L178.018 108.222L178.86 108.338L177.714 116.711C178.821 116.386 179.846 116.526 180.549 117.119C180.818 117.354 181.03 117.649 181.167 117.98C181.304 118.31 181.362 118.668 181.338 119.026C181.313 119.528 181.179 120.02 180.944 120.465C180.71 120.91 180.38 121.299 179.98 121.604C178.636 122.586 176.889 122.635 175.485 122.674Z" fill="#2F2E41"/>
<path id="Vector_17" d="M187.591 109.06H183.019V109.909H187.591V109.06Z" fill="#2F2E41"/>
<path id="Vector_18" d="M173.159 109.06H168.587V109.909H173.159V109.06Z" fill="#2F2E41"/>
<path id="Vector_19" d="M164.063 147.401C165.766 146.32 167.606 145.474 169.535 144.883C169.351 144.229 169.354 143.537 169.543 142.884C169.799 142.06 170.315 141.34 171.013 140.833C171.712 140.326 172.555 140.058 173.419 140.07H178.954C179.818 140.059 180.663 140.327 181.363 140.835C182.063 141.343 182.58 142.063 182.838 142.888C183.027 143.54 183.03 144.231 182.846 144.883C184.774 145.474 186.614 146.321 188.318 147.401H164.063Z" fill="#2F2E41"/>
<path id="Vector_20" d="M202.669 104.55C202.255 104.049 201.746 103.635 201.171 103.332C200.666 103.068 200.106 102.93 199.537 102.928C198.755 102.938 197.996 103.194 197.368 103.659C195.64 104.881 194.443 107.517 194.443 110.569C194.443 114.398 196.327 117.573 198.777 118.125C199.026 118.181 199.281 118.209 199.537 118.21C202.342 118.21 204.63 114.784 204.63 110.569C204.63 108.124 203.862 105.946 202.669 104.55Z" fill="#3F3D56"/>
<path id="Vector_21" d="M156.011 103.476H156.007C155.439 103.124 154.786 102.934 154.118 102.928C153.549 102.93 152.988 103.068 152.484 103.332C151.908 103.635 151.399 104.049 150.985 104.55L150.981 104.554C149.792 105.951 149.024 108.128 149.024 110.569C149.024 113.863 150.416 116.673 152.369 117.747C152.903 118.046 153.505 118.206 154.118 118.21C154.254 118.21 154.39 118.201 154.525 118.184H154.529C157.144 117.87 159.212 114.576 159.212 110.569C159.212 107.36 157.883 104.605 156.011 103.476Z" fill="#3F3D56"/>
<path id="Vector_22" d="M152.687 117.016C152.788 117.016 152.888 116.992 152.978 116.946C153.068 116.9 153.145 116.833 153.204 116.751C153.263 116.669 153.302 116.574 153.317 116.474C153.332 116.374 153.323 116.272 153.291 116.176C152.074 112.557 151.708 108.707 152.221 104.923C152.734 101.14 154.113 97.5264 156.25 94.3627C158.387 91.1989 161.225 88.5705 164.542 86.6818C167.86 84.793 171.569 83.6948 175.38 83.4724C179.192 83.2501 183.003 83.9095 186.518 85.3996C190.033 86.8897 193.157 89.1702 195.648 92.064C198.138 94.9578 199.928 98.3868 200.877 102.085C201.827 105.782 201.911 109.65 201.124 113.385C201.089 113.55 201.121 113.723 201.213 113.864C201.305 114.006 201.45 114.105 201.615 114.14C201.78 114.174 201.953 114.142 202.094 114.05C202.236 113.958 202.335 113.813 202.37 113.648C203.198 109.72 203.11 105.655 202.112 101.767C201.114 97.8785 199.233 94.273 196.614 91.2303C193.996 88.1877 190.711 85.7898 187.016 84.223C183.32 82.6563 179.313 81.9629 175.305 82.1968C171.298 82.4307 167.399 83.5856 163.91 85.5716C160.422 87.5577 157.439 90.3214 155.192 93.648C152.946 96.9747 151.497 100.775 150.958 104.752C150.418 108.73 150.804 112.779 152.084 116.583C152.127 116.709 152.208 116.819 152.316 116.897C152.424 116.975 152.554 117.016 152.687 117.016Z" fill="#3F3D56"/>
<path id="Vector_23" d="M188.059 98.2621C188.959 99.49 188.515 101.145 187.567 102.203C186.334 103.581 184.367 103.668 182.66 103.412C180.743 103.125 178.711 102.228 176.771 102.833C175.118 103.348 173.938 104.848 172.22 105.225C170.697 105.559 168.875 105.117 168.341 103.493C168.084 102.712 169.314 102.378 169.569 103.154C169.914 104.205 171.406 104.184 172.261 103.893C173.63 103.427 174.686 102.292 176.032 101.75C177.619 101.112 179.342 101.4 180.958 101.764C182.481 102.107 184.234 102.615 185.751 101.975C186.874 101.501 187.767 100.007 186.96 98.9048C186.475 98.243 187.579 97.607 188.059 98.2621V98.2621Z" fill="#2F2E41"/>
<path id="Vector_24" d="M276.701 176.329H195.923C195.477 176.329 195.034 176.241 194.622 176.07C194.209 175.899 193.834 175.648 193.518 175.332C193.202 175.017 192.951 174.642 192.781 174.229C192.61 173.816 192.522 173.374 192.522 172.927C192.522 172.48 192.61 172.038 192.781 171.625C192.951 171.213 193.202 170.838 193.518 170.522C193.834 170.206 194.209 169.955 194.622 169.784C195.034 169.613 195.477 169.525 195.923 169.525H276.701C277.603 169.526 278.467 169.885 279.104 170.523C279.742 171.161 280.099 172.025 280.099 172.927C280.099 173.829 279.742 174.693 279.104 175.331C278.467 175.969 277.603 176.328 276.701 176.329V176.329Z" fill="#E6E6E6"/>
<path id="Vector_25" d="M290.734 187.81H195.923C195.476 187.81 195.034 187.723 194.62 187.552C194.207 187.381 193.832 187.131 193.515 186.815C193.199 186.499 192.948 186.124 192.777 185.711C192.606 185.298 192.518 184.855 192.518 184.408C192.518 183.961 192.606 183.518 192.777 183.105C192.948 182.692 193.199 182.317 193.515 182.001C193.832 181.685 194.207 181.435 194.62 181.264C195.034 181.093 195.476 181.006 195.923 181.006H290.734C291.181 181.006 291.624 181.093 292.037 181.264C292.45 181.435 292.825 181.685 293.142 182.001C293.458 182.317 293.709 182.692 293.88 183.105C294.051 183.518 294.139 183.961 294.139 184.408C294.139 184.855 294.051 185.298 293.88 185.711C293.709 186.124 293.458 186.499 293.142 186.815C292.825 187.131 292.45 187.381 292.037 187.552C291.624 187.723 291.181 187.81 290.734 187.81Z" fill="#E6E6E6"/>
<path id="Vector_26" d="M276.701 217.593H195.923C195.021 217.593 194.156 217.235 193.518 216.597C192.88 215.959 192.522 215.094 192.522 214.192C192.522 213.289 192.88 212.424 193.518 211.786C194.156 211.148 195.021 210.79 195.923 210.79H276.701C277.604 210.79 278.469 211.148 279.107 211.786C279.745 212.424 280.103 213.289 280.103 214.192C280.103 215.094 279.745 215.959 279.107 216.597C278.469 217.235 277.604 217.593 276.701 217.593V217.593Z" fill="#E6E6E6"/>
<path id="Vector_27" d="M290.734 229.074H195.923C195.021 229.074 194.156 228.716 193.518 228.078C192.88 227.44 192.522 226.575 192.522 225.673C192.522 224.77 192.88 223.905 193.518 223.267C194.156 222.629 195.021 222.271 195.923 222.271H290.734C291.636 222.271 292.501 222.629 293.139 223.267C293.777 223.905 294.136 224.77 294.136 225.673C294.136 226.575 293.777 227.44 293.139 228.078C292.501 228.716 291.636 229.074 290.734 229.074Z" fill="#E6E6E6"/>
<path id="Vector_28" d="M163.953 192.972C171.923 192.972 178.385 186.51 178.385 178.54C178.385 170.569 171.923 164.108 163.953 164.108C155.982 164.108 149.521 170.569 149.521 178.54C149.521 186.51 155.982 192.972 163.953 192.972Z" fill="#E6E6E6"/>
<path id="Vector_29" d="M163.953 234.57C171.923 234.57 178.385 228.109 178.385 220.138C178.385 212.168 171.923 205.706 163.953 205.706C155.982 205.706 149.521 212.168 149.521 220.138C149.521 228.109 155.982 234.57 163.953 234.57Z" fill="#E6E6E6"/>
<path id="Vector_30" d="M276.701 259.192H195.923C195.021 259.192 194.156 258.833 193.518 258.195C192.88 257.557 192.522 256.692 192.522 255.79C192.522 254.888 192.88 254.023 193.518 253.385C194.156 252.747 195.021 252.388 195.923 252.388H276.701C277.604 252.388 278.469 252.747 279.107 253.385C279.745 254.023 280.103 254.888 280.103 255.79C280.103 256.692 279.745 257.557 279.107 258.195C278.469 258.833 277.604 259.192 276.701 259.192V259.192Z" fill="#E6E6E6"/>
<path id="Vector_31" d="M290.734 270.673H195.923C195.021 270.673 194.156 270.314 193.518 269.676C192.88 269.039 192.522 268.173 192.522 267.271C192.522 266.369 192.88 265.504 193.518 264.866C194.156 264.228 195.021 263.869 195.923 263.869H290.734C291.636 263.869 292.501 264.228 293.139 264.866C293.777 265.504 294.136 266.369 294.136 267.271C294.136 268.173 293.777 269.039 293.139 269.676C292.501 270.314 291.636 270.673 290.734 270.673V270.673Z" fill="#E6E6E6"/>
<path id="Vector_32" d="M163.953 276.169C171.923 276.169 178.385 269.707 178.385 261.737C178.385 253.766 171.923 247.305 163.953 247.305C155.982 247.305 149.521 253.766 149.521 261.737C149.521 269.707 155.982 276.169 163.953 276.169Z" fill="#E6E6E6"/>
</g>
<defs>
<clipPath id="clip0_7_106">
<rect width="320" height="298.757" fill="white"/>
</clipPath>
</defs>
</svg>
