<svg xmlns="http://www.w3.org/2000/svg" version="1.1" xmlns:xlink="http://www.w3.org/1999/xlink" xmlns:svgjs="http://svgjs.com/svgjs" width="1440" height="560" preserveAspectRatio="none" viewBox="0 0 1440 560"><g mask="url(&quot;#SvgjsMask1000&quot;)" fill="none"><rect width="1440" height="560" x="0" y="0" fill="rgba(247, 247, 247, 0.7)"></rect><path d="M542.18 0C571.71 37.44 559.77 81.28 530.44 140C498.68 203.59 485.21 218.02 420 244.63C359.99 269.13 344.65 229.54 280 242.22C254.48 247.23 239.66 262.75 239.66 280C239.66 295.16 261.84 291.02 280 307.05C341.17 361.02 339.43 363.25 398.33 420C409.43 430.69 405.56 441.93 420 441.93C486.39 441.93 503.64 394.28 560 420C633.01 453.32 678.73 517.49 678.73 560C678.73 587.49 619.37 560 560 560C490 560 490 560 420 560C350 560 350 560 280 560C219.4 560 214.53 569.83 158.81 560C144.53 557.48 148.89 535.29 140 535.29C131.61 535.29 137.61 557.64 124.25 560C67.61 570 29.21 592.91 0 560C-32.91 522.91 0 490 0 420C0 350 0 350 0 280C0 210 0 210 0 140C0 70 -35 35 0 0C35 -35 70 0 140 0C210 0 210 0 280 0C350 0 350 0 420 0C481.09 0 516.49 -32.56 542.18 0" stroke="rgba(173, 169, 169, 1)" stroke-width="2"></path><path d="M60.75 140C60.75 107.57 15.46 117.07 0 81.45C-14.92 47.07 -25.75 14.98 0 0C44.25 -25.75 70 0 140 0C210 0 210 0 280 0C350 0 350 0 420 0C449.27 0 468.03 -20.58 478.55 0C503.81 49.42 508.77 78.92 491.56 140C479.49 182.82 463.42 198.21 420 207.79C357.64 221.55 341 168.29 280 186.67C221.17 204.39 180.34 237.38 180.34 280C180.34 317.45 233.19 309.65 280 346.82C321.35 379.65 318.84 382.9 356.67 420C388.84 451.54 380.28 473.89 420 484.1C481.94 500.01 501.06 451.38 560 472.24C608.27 489.33 634.43 533.35 634.43 560C634.43 577.23 597.21 560 560 560C490 560 490 560 420 560C350 560 350 560 280 560C245.52 560 236.96 577.28 211.04 560C166.96 530.61 173.58 466.67 140 466.67C108.31 466.67 121.03 532.98 80.5 560C51.03 579.65 15.86 584.39 0 560C-24.39 522.47 -13.81 489.08 0 436.15C4.45 419.08 36.52 432.39 36.52 420C36.52 402.21 6.84 402 0 375.79C-11.42 332 0 327.89 0 280C0 254.72 -9.68 251.74 0 229.44C20.7 181.74 60.75 181.56 60.75 140" stroke="rgba(173, 169, 169, 1)" stroke-width="2"></path><path d="M653.33 140C643.03 74.08 647.81 56.59 666.67 0C671.14 -13.41 683.34 0 700 0C726.92 0 728.81 -7.85 753.85 0C798.81 14.11 804.72 12.7 840 43.92C883.82 82.7 880.76 89 912.06 140C950.76 203.04 941.26 211.38 980 272C986 281.38 990.64 276.38 1001.54 280C1060.64 299.63 1062.02 318.5 1120 318.5C1161.77 318.5 1170.76 310.36 1201.05 280C1240.76 240.2 1231.08 178.18 1260 178.18C1288.56 178.18 1277.12 240.62 1316 280C1347.12 311.53 1362.13 320 1400 320C1421.63 320 1415.46 297.92 1435 280C1485.46 233.71 1508.07 191.58 1540 191.58C1560.57 191.58 1540 235.79 1540 280C1540 309.64 1554.48 315.95 1540 339.29C1511.06 385.95 1466.22 369.98 1453.16 420C1437.4 480.34 1499.22 515.58 1482.35 560C1472.64 585.58 1441.18 560 1400 560C1330 560 1330 560 1260 560C1190 560 1190 560 1120 560C1050 560 1050 560 980 560C910 560 910 560 840 560C820.79 560 810.33 574.47 801.57 560C767.94 504.47 768.66 491.79 755.21 420C742.43 351.79 766.47 344.95 749.12 280C738.87 241.62 723.37 247.48 700 213.33C675.47 177.48 659.7 180.74 653.33 140" stroke="rgba(173, 169, 169, 1)" stroke-width="2"></path><path d="M1120 84.48C1078.9 84.48 1044.62 25.36 1044.62 0C1044.62 -16.88 1082.31 0 1120 0C1172.13 0 1224.26 -18.47 1224.26 0C1224.26 23.77 1168.72 84.48 1120 84.48" stroke="rgba(173, 169, 169, 1)" stroke-width="2"></path><path d="M1540 88.42C1516.13 88.42 1457.38 26.27 1457.38 0C1457.38 -17.94 1520.05 -21.36 1540 0C1561.36 22.85 1557.44 88.42 1540 88.42" stroke="rgba(173, 169, 169, 1)" stroke-width="2"></path><path d="M980 373.33C978.04 373.33 976.82 397.1 976.82 420C976.82 422.77 978.19 424.67 980 424.67C982.12 424.67 984.67 423.17 984.67 420C984.67 397.5 981.97 373.33 980 373.33" stroke="rgba(173, 169, 169, 1)" stroke-width="2"></path><path d="M126.79 140C73.55 73.06 57.57 81.39 0 17.82C-5.83 11.39 -7.9 1.01 0 0C62.1 -7.9 70 0 140 0C176.84 0 200.27 -24.13 213.68 0C239.16 45.87 239.77 82.15 217.78 140C202.93 179.07 168.68 193.85 140 193.85C123.19 193.85 143.55 161.08 126.79 140" stroke="rgba(173, 169, 169, 1)" stroke-width="2"></path><path d="M302.4 140C302.4 93.3 377.3 12.17 420 12.17C452.43 12.17 452.67 80.8 452.67 140C452.67 160.19 440.29 170.95 420 170.95C365.16 170.95 302.4 172.69 302.4 140" stroke="rgba(173, 169, 169, 1)" stroke-width="2"></path><path d="M732.31 140C738.34 105.73 790.99 112.55 840 112.55C855.13 112.55 855.94 123.77 860.59 140C879.94 207.49 878.75 209.42 888 280C897.09 349.42 911.05 354.86 897.27 420C887.05 468.31 864.39 506.9 840 506.9C818.01 506.9 810.42 465.51 804.51 420C795.69 352.06 827.36 345.29 810.53 280C791.26 205.29 723.61 189.45 732.31 140" stroke="rgba(173, 169, 169, 1)" stroke-width="2"></path><path d="M1120 24.14C1108.25 24.14 1098.46 7.25 1098.46 0C1098.46 -4.82 1109.23 0 1120 0C1134.89 0 1149.79 -5.28 1149.79 0C1149.79 6.79 1133.92 24.14 1120 24.14" stroke="rgba(173, 169, 169, 1)" stroke-width="2"></path><path d="M1540 27.02C1532.7 27.02 1514.75 8.03 1514.75 0C1514.75 -5.48 1533.9 -6.53 1540 0C1546.53 6.98 1545.33 27.02 1540 27.02" stroke="rgba(173, 169, 169, 1)" stroke-width="2"></path><path d="M1507.92 280C1507.92 267.98 1530.24 252.98 1540 252.98C1546.28 252.98 1540 266.49 1540 280C1540 289.06 1545.29 298.12 1540 298.12C1529.25 298.12 1507.92 290.55 1507.92 280" stroke="rgba(173, 169, 169, 1)" stroke-width="2"></path><path d="M178.62 420C181.92 385.77 233.08 386.59 280 386.59C301.27 386.59 297.87 402.91 315 420C367.87 472.75 356.76 499.3 420 526.27C479.26 551.54 496.17 511.82 560 524.48C581.23 528.69 590.13 549.22 590.13 560C590.13 566.98 575.07 560 560 560C490 560 490 560 420 560C350 560 350 560 280 560C271.64 560 267.98 566.49 263.28 560C217.29 496.49 173.56 472.47 178.62 420" stroke="rgba(173, 169, 169, 1)" stroke-width="2"></path><path d="M1101.33 420C1109.71 411.9 1108.67 406.56 1120 406C1188.01 402.67 1190.04 412.89 1260 412.22C1330.04 411.55 1334.4 399.9 1400 403.33C1408.83 403.79 1407.05 410.79 1408.86 420C1422.49 489.13 1434.52 502.52 1430.88 560C1430.09 572.52 1415.44 560 1400 560C1371.62 560 1361.77 577.72 1343.24 560C1291.77 510.77 1303.87 426.09 1260 426.09C1214.12 426.09 1219.07 507.08 1163.75 560C1149.07 574.04 1141.88 560 1120 560C1050 560 1050 560 980 560C961.34 560 942.67 564.41 942.67 560C942.67 555.07 964.48 555.03 980 541.33C1043.81 485.03 1039.71 479.56 1101.33 420" stroke="rgba(173, 169, 169, 1)" stroke-width="2"></path><path d="M0 503.46C9.99 503.46 36.75 541.7 36.75 560C36.75 569.97 7.24 571.14 0 560C-11.14 542.87 -8.38 503.46 0 503.46" stroke="rgba(173, 169, 169, 1)" stroke-width="2"></path></g><defs><mask id="SvgjsMask1000"><rect width="1440" height="560" fill="#ffffff"></rect></mask></defs></svg>