<svg width="494" height="369" viewBox="0 0 494 369" fill="none" xmlns="http://www.w3.org/2000/svg">
<g clip-path="url(#clip0_160_401)">
<path d="M449.386 283.126C442.973 302.183 434.07 321.012 421.917 338.659C421.648 339.057 421.375 339.446 421.099 339.842L384.66 328.525C384.818 328.143 384.99 327.715 385.174 327.248C396.162 299.692 462.259 131.734 454.418 97.0654C455.16 99.9106 479.405 194.047 449.386 283.126Z" fill="#E6E6E6"/>
<path d="M428.947 340.843C428.51 341.188 428.059 341.53 427.604 341.862L400.269 333.373C400.589 333.063 400.962 332.697 401.391 332.285C408.405 325.426 429.238 304.878 449.386 283.126C471.039 259.751 491.905 234.99 494 224.333C493.612 226.763 481.354 300.698 428.947 340.843Z" fill="#E6E6E6"/>
<path d="M432.321 87.3817H430.327V32.0333C430.327 23.5375 426.997 15.3897 421.07 9.38234C415.143 3.37493 407.104 0 398.722 0H283.029C274.647 0 266.608 3.37493 260.681 9.38234C254.754 15.3897 251.424 23.5375 251.424 32.0333V335.68C251.424 344.175 254.754 352.323 260.681 358.331C266.608 364.338 274.647 367.713 283.029 367.713H398.722C407.104 367.713 415.143 364.338 421.069 358.331C426.996 352.323 430.326 344.175 430.326 335.68V126.78H432.32L432.321 87.3817Z" fill="#3F3D56"/>
<path d="M399.998 8.33301H384.896C385.591 10.0589 385.856 11.9315 385.668 13.7859C385.481 15.6402 384.846 17.4194 383.821 18.9666C382.795 20.5138 381.409 21.7815 379.786 22.658C378.163 23.5345 376.352 23.993 374.513 23.9929H308.234C306.395 23.9928 304.585 23.5343 302.962 22.6578C301.339 21.7813 299.954 20.5137 298.928 18.9668C297.902 17.4198 297.268 15.6409 297.08 13.7868C296.892 11.9327 297.158 10.0603 297.852 8.33453H283.745C277.485 8.33453 271.481 10.855 267.055 15.3414C262.629 19.8278 260.142 25.9127 260.142 32.2574V32.2574V335.457C260.142 341.801 262.629 347.886 267.055 352.373C271.481 356.859 277.485 359.38 283.745 359.38H399.993C406.253 359.38 412.256 356.859 416.683 352.373C421.109 347.886 423.596 341.801 423.596 335.457V335.457V32.2559C423.596 25.9112 421.109 19.8263 416.683 15.3399C412.256 10.8535 406.253 8.33302 399.993 8.33302V8.33302L399.998 8.33301Z" fill="white"/>
<path d="M354.864 321.297C356.011 314.135 351.212 307.387 344.147 306.225C337.081 305.063 330.424 309.927 329.277 317.088C328.131 324.25 332.929 330.997 339.995 332.159C347.06 333.322 353.718 328.458 354.864 321.297Z" fill="#E6E6E6"/>
<path d="M413.525 166.967H270.213V195.646H413.525V166.967Z" fill="#E6E6E6"/>
<path d="M273.268 192.55H410.471V170.066H273.268V192.55Z" fill="white"/>
<path d="M285.279 172.554C286.95 172.554 288.584 173.057 289.974 173.998C291.364 174.939 292.448 176.277 293.087 177.843C293.727 179.408 293.894 181.13 293.568 182.792C293.242 184.454 292.437 185.98 291.255 187.178C290.073 188.376 288.567 189.192 286.928 189.523C285.288 189.853 283.589 189.684 282.044 189.035C280.5 188.387 279.18 187.289 278.251 185.88C277.322 184.471 276.827 182.815 276.827 181.121C276.827 179.996 277.045 178.882 277.47 177.843C277.895 176.803 278.517 175.859 279.302 175.063C280.087 174.268 281.019 173.637 282.044 173.206C283.07 172.776 284.169 172.554 285.279 172.554Z" fill="#3E3BE8"/>
<path d="M388.905 177.769H305.49V179.631H388.905V177.769Z" fill="#E6E6E6"/>
<path d="M388.905 182.61H305.49V184.473H388.905V182.61Z" fill="#E6E6E6"/>
<path d="M413.525 207.893H270.213V236.572H413.525V207.893Z" fill="#E6E6E6"/>
<path d="M273.268 233.476H410.471V210.992H273.268V233.476Z" fill="white"/>
<path d="M285.279 230.613C289.946 230.613 293.731 226.778 293.731 222.047C293.731 217.315 289.946 213.48 285.279 213.48C280.611 213.48 276.827 217.315 276.827 222.047C276.827 226.778 280.611 230.613 285.279 230.613Z" fill="#3E3BE8"/>
<path d="M388.905 218.694H305.49V220.557H388.905V218.694Z" fill="#E6E6E6"/>
<path d="M388.905 223.536H305.49V225.399H388.905V223.536Z" fill="#E6E6E6"/>
<path d="M413.525 248.819H270.213V277.498H413.525V248.819Z" fill="#E6E6E6"/>
<path d="M273.268 274.401H410.471V251.917H273.268V274.401Z" fill="white"/>
<path d="M285.279 271.539C289.946 271.539 293.731 267.704 293.731 262.973C293.731 258.242 289.946 254.406 285.279 254.406C280.611 254.406 276.827 258.242 276.827 262.973C276.827 267.704 280.611 271.539 285.279 271.539Z" fill="#3E3BE8"/>
<path d="M388.905 259.62H305.49V261.482H388.905V259.62Z" fill="#E6E6E6"/>
<path d="M388.905 264.462H305.49V266.324H388.905V264.462Z" fill="#E6E6E6"/>
<path d="M341.869 138.399C363.894 138.399 381.748 120.302 381.748 97.9787C381.748 75.655 363.894 57.5581 341.869 57.5581C319.844 57.5581 301.99 75.655 301.99 97.9787C301.99 120.302 319.844 138.399 341.869 138.399Z" fill="#3E3BE8"/>
<path d="M361.31 85.1475V110.81C361.31 111.051 361.263 111.289 361.173 111.511C361.082 111.734 360.949 111.936 360.781 112.106C360.613 112.276 360.413 112.411 360.194 112.503C359.974 112.596 359.739 112.643 359.502 112.643H324.236C323.999 112.643 323.764 112.596 323.544 112.503C323.325 112.411 323.125 112.276 322.957 112.106C322.789 111.936 322.656 111.734 322.565 111.511C322.474 111.289 322.428 111.051 322.428 110.81V85.1475C322.427 84.9378 322.463 84.7296 322.536 84.5334C322.644 84.2202 322.835 83.9431 323.088 83.7323C323.341 83.5214 323.646 83.3848 323.97 83.3374C324.058 83.3227 324.147 83.3151 324.236 83.3145H359.502C359.591 83.3151 359.68 83.3227 359.768 83.3374C360.092 83.3848 360.397 83.5213 360.65 83.7322C360.903 83.9431 361.093 84.2202 361.201 84.5334C361.274 84.7296 361.311 84.9378 361.31 85.1475V85.1475Z" fill="white"/>
<path d="M361.201 84.533L342.407 98.7114C342.252 98.8303 342.063 98.8947 341.869 98.8947C341.674 98.8947 341.486 98.8303 341.331 98.7114L322.536 84.533C322.644 84.2198 322.835 83.9427 323.088 83.7318C323.34 83.5209 323.645 83.3843 323.969 83.3369L341.869 96.8371L359.768 83.3369C360.092 83.3843 360.397 83.5209 360.65 83.7318C360.902 83.9427 361.093 84.2198 361.201 84.533V84.533Z" fill="#3E3BE8"/>
<path d="M108.947 130.914C108.947 143.449 120.382 141.553 134.488 141.553C148.593 141.553 160.028 143.449 160.028 130.914C160.028 118.379 154.443 96.1611 134.488 96.1611C113.845 96.1611 108.947 118.379 108.947 130.914Z" fill="#2F2E41"/>
<path d="M188.927 359.882L197.092 357.215L190.826 324.024L178.775 327.962L188.927 359.882Z" fill="#A0616A"/>
<path d="M185.985 357.861L202.065 352.607L202.065 352.607C203.411 352.168 204.829 352.001 206.238 352.117C207.648 352.233 209.02 352.629 210.279 353.282C211.537 353.936 212.656 354.834 213.572 355.926C214.487 357.018 215.182 358.282 215.616 359.646L215.723 359.984L189.395 368.585L185.985 357.861Z" fill="#2F2E41"/>
<path d="M88.7002 360.156L97.2793 360.156L101.36 326.617L88.6987 326.618L88.7002 360.156Z" fill="#A0616A"/>
<path d="M86.5122 357.318L103.407 357.317H103.407C104.821 357.317 106.221 357.599 107.528 358.147C108.834 358.696 110.021 359.5 111.021 360.513C112.02 361.526 112.813 362.729 113.354 364.053C113.896 365.377 114.174 366.796 114.174 368.229V368.584L86.5127 368.585L86.5122 357.318Z" fill="#2F2E41"/>
<path d="M77.6249 230.845C76.9463 230.011 76.441 229.047 76.1393 228.011C75.8376 226.974 75.7457 225.887 75.8691 224.813C75.9925 223.74 76.3287 222.703 76.8575 221.764C77.3862 220.826 78.0967 220.005 78.9461 219.352C79.2578 219.115 79.587 218.902 79.9308 218.715L107.914 152.008C108.187 151.206 108.614 150.467 109.171 149.834C109.727 149.2 110.402 148.685 111.156 148.317C111.91 147.95 112.728 147.737 113.564 147.692C114.399 147.647 115.236 147.77 116.024 148.054C116.812 148.338 117.537 148.777 118.157 149.347C118.777 149.917 119.279 150.606 119.635 151.373C119.991 152.141 120.193 152.972 120.23 153.819C120.267 154.667 120.138 155.513 119.85 156.309L91.0331 222.68C91.7571 224.455 91.8287 226.433 91.2349 228.256C90.6412 230.079 89.4215 231.626 87.7978 232.615C86.174 233.604 84.2541 233.969 82.3872 233.644C80.5202 233.319 78.8304 232.326 77.6249 230.845Z" fill="#A0616A"/>
<path d="M181.103 237.538C179.494 236.546 178.29 235.002 177.71 233.187C177.13 231.371 177.212 229.405 177.942 227.645L149.116 161.252C148.832 160.457 148.706 159.612 148.745 158.767C148.784 157.922 148.987 157.092 149.344 156.327C149.7 155.562 150.202 154.876 150.821 154.308C151.439 153.74 152.163 153.302 152.949 153.018C153.736 152.735 154.57 152.611 155.404 152.656C156.237 152.7 157.054 152.911 157.807 153.276C158.56 153.642 159.234 154.154 159.791 154.785C160.348 155.415 160.776 156.151 161.052 156.95L189.044 223.68C189.388 223.867 189.717 224.08 190.029 224.317C190.878 224.97 191.589 225.791 192.117 226.729C192.646 227.668 192.982 228.705 193.106 229.778C193.229 230.852 193.137 231.939 192.835 232.976C192.534 234.012 192.028 234.976 191.35 235.81C190.605 236.723 189.671 237.458 188.613 237.962C187.555 238.466 186.4 238.726 185.231 238.724C183.773 238.727 182.343 238.316 181.103 237.538V237.538Z" fill="#A0616A"/>
<path d="M142.817 139.397C151.145 134.782 154.206 124.198 149.653 115.757C145.101 107.315 134.658 104.212 126.329 108.827C118.001 113.442 114.94 124.026 119.493 132.468C124.046 140.909 134.488 144.012 142.817 139.397Z" fill="#A0616A"/>
<path d="M110.368 198.207L106.959 158.075C106.815 156.377 107.047 154.668 107.639 153.072C108.231 151.477 109.168 150.036 110.38 148.855C111.593 147.674 113.051 146.783 114.647 146.248C116.244 145.712 117.938 145.545 119.606 145.759L151.279 149.822C154.18 150.188 156.826 151.684 158.657 153.993C160.489 156.302 161.361 159.243 161.09 162.193C159.833 176.533 156.323 201.708 146.95 209.209L146.807 209.323L110.368 198.207Z" fill="#2F2E41"/>
<path d="M101.12 339.862L87.9797 338.284C87.2048 338.201 86.4879 337.83 85.9684 337.241C85.449 336.653 85.1641 335.889 85.1693 335.1C85.1981 328.691 85.1819 322.127 85.1664 315.78C85.0321 261.396 84.9053 210.028 110.177 195.854L110.313 195.778L147.069 208.673L148.476 233.632L178.315 276.478C180.782 280.018 182.64 283.956 183.809 288.125L194.896 327.599C195.013 328.015 195.045 328.451 194.99 328.88C194.936 329.309 194.796 329.722 194.579 330.095C194.362 330.468 194.072 330.792 193.728 331.047C193.383 331.303 192.991 331.485 192.575 331.582L179.652 334.605C178.907 334.779 178.126 334.672 177.453 334.305C176.78 333.938 176.261 333.336 175.994 332.61L158.678 288.914L123.492 250.486C123.359 250.346 123.191 250.246 123.006 250.196C122.821 250.146 122.626 250.149 122.443 250.203C122.259 250.257 122.093 250.362 121.964 250.504C121.834 250.647 121.746 250.823 121.708 251.014L104.546 337.32C104.392 338.102 103.955 338.796 103.321 339.267C102.686 339.737 101.901 339.95 101.12 339.862Z" fill="#2F2E41"/>
<path d="M154.43 122.403H147.632L144.634 113.892L144.034 122.403H140.785L139.036 117.438L138.686 122.403H114.544C114.544 119.982 115.015 117.584 115.929 115.346C116.844 113.109 118.184 111.076 119.873 109.364C121.563 107.652 123.568 106.293 125.776 105.367C127.983 104.44 130.349 103.963 132.738 103.963H136.237C138.626 103.963 140.992 104.44 143.199 105.367C145.406 106.293 147.412 107.652 149.101 109.364C150.791 111.076 152.131 113.109 153.045 115.346C153.959 117.584 154.43 119.982 154.43 122.403V122.403Z" fill="#2F2E41"/>
<path d="M488.024 369H0.498492C0.366284 369 0.23949 368.947 0.146005 368.852C0.0525192 368.757 0 368.629 0 368.495C0 368.361 0.0525192 368.232 0.146005 368.137C0.23949 368.042 0.366284 367.989 0.498492 367.989H488.024C488.156 367.989 488.283 368.042 488.376 368.137C488.47 368.232 488.522 368.361 488.522 368.495C488.522 368.629 488.47 368.757 488.376 368.852C488.283 368.947 488.156 369 488.024 369Z" fill="#CACACA"/>
</g>
<defs>
<clipPath id="clip0_160_401">
<rect width="494" height="369" fill="white"/>
</clipPath>
</defs>
</svg>
