<svg width="500" height="380" viewBox="0 0 500 380" fill="none" xmlns="http://www.w3.org/2000/svg">
<g clip-path="url(#clip0_6_5)">
<path d="M462.617 345.323C446.234 357.799 426.276 370.437 406.653 376.396C400.996 378.165 395.159 379.294 389.251 379.762C383.727 380.206 378.168 379.775 372.779 378.484C358.617 374.961 345.481 368.793 332.771 361.586C328.619 359.227 324.514 356.761 320.434 354.241C313.773 350.124 307.178 345.864 300.565 341.705C299.575 341.075 298.591 340.457 297.601 339.845H297.595C295.998 338.843 294.398 337.855 292.794 336.88C292.512 336.706 292.23 336.538 291.942 336.364C288.911 334.528 285.829 332.734 282.695 330.982C282.311 330.772 281.926 330.556 281.542 330.346C275.478 326.982 269.245 323.931 262.868 321.206C258.679 319.442 254.437 317.852 250.152 316.496H250.146C248.508 315.98 246.864 315.494 245.214 315.049C240.265 313.692 235.223 312.705 230.128 312.097C223.107 311.247 216.005 311.304 208.999 312.265C208.525 312.331 208.057 312.397 207.583 312.475C188.62 315.512 171.314 325.749 152.267 328.161C151.649 328.239 151.037 328.311 150.419 328.365C150.155 328.389 149.891 328.419 149.627 328.437C144.092 328.911 138.522 328.774 133.017 328.029C117.637 326.001 102.659 319.706 89.1748 311.773C57.6526 293.225 32.0892 264.715 16.5471 231.698C13.8782 226.04 11.5086 220.245 9.44821 214.338C3.68739 197.957 0.514887 180.779 0.0449254 163.421C-1.41327 103.197 32.8093 42.7751 86.5405 15.5375C140.278 -11.7002 210.967 -2.69295 254.305 39.1506C280.594 64.534 295.806 98.9306 315.591 129.661C335.376 160.385 363.495 189.735 399.764 194.211C418.241 196.492 437.575 192.081 455.284 197.818C465.089 200.998 473.454 207.083 480.193 214.836C484.724 220.097 488.515 225.952 491.462 232.238C493.623 236.783 495.376 241.51 496.701 246.364C496.947 247.258 497.175 248.153 497.397 249.047C506.218 285.075 492.123 322.844 462.617 345.323Z" fill="#F2F2F2"/>
<path d="M167.521 280.101H111.114C102.663 280.101 95.8116 286.952 95.8116 295.403V295.403C95.8116 303.854 102.663 310.705 111.114 310.705H167.521C175.972 310.705 182.823 303.854 182.823 295.403C182.823 286.952 175.972 280.101 167.521 280.101Z" fill="#3F3D56"/>
<path d="M150.419 302.904V328.365C144.625 328.926 138.785 328.813 133.017 328.029V302.904H150.419Z" fill="#3F3D56"/>
<path d="M208.999 312.265C208.525 312.331 208.057 312.397 207.583 312.475C188.62 315.511 171.314 325.749 152.267 328.161C151.649 328.239 151.037 328.311 150.419 328.365C150.155 328.389 149.891 328.419 149.627 328.437C144.976 323.883 140.326 319.034 135.957 314.011C133.587 311.293 131.294 308.521 129.14 305.712C123.547 298.463 118.807 291.01 115.674 283.689C115.992 280.179 113.808 272.06 112.764 265.843L112.758 265.837C112.314 263.226 112.074 260.958 112.296 259.5C113.568 251.087 120.439 252.053 122.551 243.808C124.457 242.226 126.485 240.8 128.618 239.541C128.972 239.331 129.332 239.121 129.704 238.911L152.627 223.069L161.388 231.662L174.722 244.744L189.172 258.912L176.906 271.304C176.906 271.304 187.156 283.119 199.139 298.871C202.356 303.102 205.698 307.62 208.999 312.265Z" fill="#2F2E41"/>
<path d="M406.653 302.904V376.396C400.996 378.165 395.159 379.294 389.251 379.762V302.904H406.653Z" fill="#3F3D56"/>
<path d="M429.156 296.903H372.749C364.297 296.903 357.447 303.754 357.447 312.205V312.205C357.447 320.656 364.297 327.507 372.749 327.507H429.156C437.607 327.507 444.458 320.656 444.458 312.205C444.458 303.754 437.607 296.903 429.156 296.903Z" fill="#3F3D56"/>
<path d="M291.942 336.364C288.911 334.528 285.829 332.734 282.695 330.982C282.311 330.772 281.927 330.555 281.542 330.345L283.607 329.463L289.175 327.069L289.229 327.045L289.289 327.249L291.942 336.364Z" fill="#FFB6B6"/>
<path d="M300.565 341.705C299.575 341.075 298.591 340.457 297.601 339.845H297.595C295.998 338.843 294.398 337.854 292.794 336.88C292.512 336.706 292.23 336.538 291.942 336.364C288.911 334.528 285.829 332.734 282.695 330.981C282.311 330.771 281.926 330.555 281.542 330.345C275.478 326.982 269.245 323.931 262.868 321.206C258.679 319.442 254.437 317.852 250.152 316.496H250.146L246.78 310.861L231.628 285.483L228.297 279.909C228.297 279.909 216.938 283.269 200.862 286.492C195.011 287.668 188.542 288.82 181.755 289.792C174.5 290.824 166.891 291.646 159.33 292.042C155.724 292.234 152.129 292.33 148.589 292.3C139.437 292.24 130.646 291.382 122.947 289.342C120.379 286.93 112.638 283.647 107.093 280.641H107.087C104.759 279.381 102.827 278.174 101.812 277.1C95.9677 270.919 100.96 266.101 95.7636 259.356C95.6937 256.881 95.8201 254.405 96.1417 251.951C96.1957 251.543 96.2497 251.129 96.3157 250.709L97.9539 222.889L110.124 221.281L128.642 218.833L148.703 216.18L150.911 233.474C150.911 233.474 166.531 232.682 186.322 232.946C218.108 233.378 260.642 236.547 266.402 250.145C266.942 251.423 267.483 252.713 268.023 254.003C269.307 257.088 270.579 260.188 271.839 263.304C276.406 274.586 280.762 285.975 284.741 296.741C287.213 303.438 289.542 309.895 291.684 315.937C293.406 320.798 295.002 325.395 296.46 329.625C297.793 333.49 298.999 337.048 300.073 340.241C300.241 340.739 300.403 341.231 300.565 341.705Z" fill="#2F2E41"/>
<path d="M188.617 173.15L150.178 140.505L175.187 115.195L192.634 143.773L257.307 156.595C259.252 155.131 261.58 154.265 264.008 154.102C266.437 153.939 268.86 154.486 270.983 155.677C273.106 156.867 274.836 158.649 275.964 160.806C277.091 162.963 277.567 165.402 277.332 167.824C277.098 170.247 276.163 172.549 274.643 174.449C273.123 176.35 271.083 177.767 268.771 178.528C266.459 179.29 263.976 179.362 261.624 178.736C259.272 178.11 257.153 176.814 255.525 175.004L188.617 173.15Z" fill="#A0616A"/>
<path d="M116.208 97.6012C111.765 112.053 154.072 146.52 154.072 146.52C154.542 143.05 178.529 172.967 180.161 170.258C184.799 162.558 189.903 143.523 195.257 141.09C198.319 139.699 180.753 120.362 180.753 120.362C180.753 120.362 171.792 108.506 159.961 93.4814C156.695 89.1716 152.391 85.7581 147.451 83.5588C142.511 81.3595 137.095 80.4459 131.707 80.903C131.707 80.903 120.65 83.1497 116.208 97.6012Z" fill="#3F3D56"/>
<path d="M134.913 65.6086C149.271 65.6086 160.911 53.969 160.911 39.6108C160.911 25.2525 149.271 13.6129 134.913 13.6129C120.555 13.6129 108.915 25.2525 108.915 39.6108C108.915 53.969 120.555 65.6086 134.913 65.6086Z" fill="#A0616A"/>
<path d="M147.912 82.7914C153.513 86.1212 156.863 92.2392 158.787 98.4647C162.348 109.991 164.491 121.907 165.169 133.952L167.201 170.01L192.36 246.789C170.555 265.239 88.5948 250.982 88.5948 250.982C88.5948 250.982 86.0789 250.143 88.5948 247.627C91.1108 245.111 93.56 247.34 91.0441 244.824C88.5283 242.309 90.2626 245.111 91.1013 242.595C91.9399 240.08 91.1013 241.757 90.2626 240.918C89.424 240.079 96.755 232.532 96.755 232.532L90.0459 188.46L81.6595 99.5642C91.7232 86.9846 111.963 79.569 111.963 79.569L117.192 70.1557L143.34 72.2475L147.912 82.7914Z" fill="#3F3D56"/>
<path d="M156.344 25.7985C158.365 27.3056 159.862 29.4084 160.625 31.811C160.918 27.8847 160.936 23.9427 160.68 20.0138C160.374 17.2529 158.43 16.6319 156.179 15.9123C154.147 15.2622 151.848 14.5278 151.23 11.8476C143.057 3.8975 128.831 4.29839 119.095 7.07152C113.738 8.59752 110.655 10.5581 110.379 11.7067L110.322 11.9431L110.105 12.0519C105.975 14.1166 105.171 20.6368 105.224 25.7428C105.325 35.363 108.647 46.289 110.518 47.1766C110.617 47.2235 110.642 47.2051 110.685 47.1694C113.502 44.9177 116.94 47.3405 118.451 48.6576C119.342 42.6785 122.211 37.1705 126.599 33.0132C130.988 28.8559 136.643 26.2892 142.662 25.723C144.627 25.533 146.577 25.206 148.497 24.7445C149.471 24.4925 150.472 24.3611 151.478 24.3533C153.209 24.327 154.908 24.8313 156.344 25.7985Z" fill="#2F2E41"/>
<path d="M123.586 212.319L115.633 208.246C115.207 207.942 114.904 207.495 114.78 206.987C114.656 206.479 114.719 205.943 114.958 205.477C115.196 205.011 115.595 204.647 116.079 204.451C116.564 204.254 117.104 204.239 117.599 204.407L125.552 208.48C125.978 208.784 126.281 209.23 126.405 209.739C126.529 210.247 126.465 210.783 126.227 211.249C125.988 211.714 125.59 212.079 125.106 212.275C124.621 212.472 124.081 212.487 123.586 212.319L123.586 212.319Z" fill="#3E3BE8"/>
<path d="M96.8205 201.407L83.7381 152.703L118.698 146.085L116.818 179.515L162.752 226.812C165.184 226.713 167.592 227.323 169.683 228.569C171.774 229.814 173.457 231.641 174.528 233.827C175.599 236.013 176.01 238.463 175.712 240.878C175.414 243.294 174.42 245.571 172.851 247.431C171.281 249.291 169.204 250.654 166.874 251.355C164.543 252.055 162.058 252.062 159.724 251.375C157.389 250.688 155.304 249.336 153.724 247.485C152.145 245.634 151.137 243.363 150.826 240.949L96.8205 201.407Z" fill="#A0616A"/>
<path d="M80.1607 98.0958C68.2941 107.464 83.5249 159.865 83.5249 159.865C85.883 157.277 88.6233 195.525 91.5056 194.223C99.6976 190.521 114.712 177.758 120.501 178.798C123.811 179.393 120.343 153.499 120.343 153.499C120.343 153.499 119.705 138.652 118.506 119.566C118.267 114.163 116.665 108.909 113.85 104.292C111.034 99.6758 107.096 95.8465 102.403 93.1612C102.403 93.1612 92.0273 88.7277 80.1607 98.0958Z" fill="#3F3D56"/>
<path d="M491.462 232.238L16.5471 231.698C13.8782 226.04 11.5086 220.245 9.44815 214.338L480.193 214.836C484.724 220.097 488.515 225.952 491.462 232.238Z" fill="#3F3D56"/>
<path d="M340.2 358.147C337.746 359.335 335.27 360.481 332.771 361.586C328.619 359.227 324.514 356.761 320.434 354.241L335.568 347.592L340.2 358.147Z" fill="#FFB6B6"/>
<path d="M450.543 275.456C448.083 278.757 445.544 281.991 442.928 285.159C440.516 288.082 438.039 290.948 435.499 293.759C434.449 294.923 433.387 296.081 432.301 297.227C430.302 299.369 428.26 301.476 426.174 303.546C422.417 304.728 414.808 306.81 406.653 308.755C400.718 310.165 394.496 311.503 389.251 312.355C386.315 312.882 383.345 313.199 380.364 313.303C376.823 313.333 373.229 313.237 369.622 313.045C365.554 312.829 361.479 312.493 357.453 312.061C346.981 310.963 336.84 309.253 328.091 307.494C324.886 306.858 321.874 306.21 319.101 305.58C313.851 304.398 309.458 303.294 306.278 302.454C302.695 301.518 300.655 300.911 300.655 300.911L291.684 315.938L287.027 323.733L283.607 329.463L282.695 330.982C282.311 330.772 281.927 330.555 281.542 330.345C275.478 326.982 269.245 323.931 262.868 321.206C258.679 319.442 254.437 317.852 250.152 316.496H250.146C248.508 315.98 246.864 315.493 245.214 315.049C245.73 313.663 246.252 312.267 246.78 310.861C247.764 308.238 248.768 305.592 249.792 302.922C252.007 297.137 254.299 291.268 256.657 285.429C258.589 280.635 260.558 275.858 262.55 271.148C263.468 268.975 265.334 267.067 267.945 265.393C269.192 264.606 270.494 263.908 271.839 263.304C279.31 259.902 290.316 257.688 302.443 256.266C303.445 256.152 304.454 256.038 305.468 255.93C315.507 254.873 326.158 254.327 336.12 254.075C341.106 253.949 345.919 253.901 350.396 253.895C351.842 253.895 353.248 253.899 354.614 253.907H354.62C358.311 253.925 361.707 253.979 364.696 254.039C365.278 254.051 365.842 254.069 366.394 254.081H366.4C366.772 254.087 367.138 254.099 367.498 254.105C374.033 254.273 378.041 254.477 378.041 254.477L379.596 242.284L379.914 239.823L380.214 237.483V237.477L380.25 237.183L380.496 237.177L384.816 237.093L421.133 236.385L440.972 235.995L437.827 249.473L432.637 271.712C433.165 275.228 450.723 272.474 450.543 275.456Z" fill="#2F2E41"/>
<path d="M344.677 355.927C343.195 356.683 341.7 357.427 340.2 358.147C337.746 359.335 335.27 360.481 332.771 361.586C328.619 359.227 324.514 356.761 320.434 354.241C313.773 350.124 307.178 345.863 300.565 341.705C299.575 341.075 298.591 340.457 297.601 339.845H297.595C294.87 335.8 292.092 331.588 289.289 327.249C289.247 327.189 289.211 327.129 289.175 327.069C288.455 325.965 287.739 324.853 287.027 323.733C282.545 316.712 278.038 309.391 273.663 301.914L284.741 296.741L305.336 287.128L308.888 285.471L319.101 305.58L328.211 323.516L330.239 327.507L344.677 355.927Z" fill="#2F2E41"/>
<path d="M347.781 259.385L400.288 208.748L414.841 167.54L393.375 158.206C382.349 168.768 370.43 201.666 370.43 201.666L334.297 247.635C334.016 247.731 333.735 247.834 333.458 247.956C331.83 248.674 330.415 249.799 329.35 251.223C328.285 252.648 327.604 254.323 327.376 256.086C327.147 257.85 327.377 259.643 328.043 261.292C328.71 262.941 329.79 264.391 331.181 265.5C332.571 266.609 334.224 267.341 335.98 267.625C337.736 267.909 339.535 267.735 341.204 267.12C342.873 266.505 344.355 265.47 345.507 264.115C346.659 262.76 347.442 261.131 347.781 259.385Z" fill="#FFB8B8"/>
<path d="M387.334 162.807L414.563 171.451L414.666 171.434C424.801 169.736 433.21 153.184 438.48 139.597C440.214 135.116 440.181 130.143 438.389 125.685C436.597 121.226 433.179 117.614 428.826 115.579C425.605 114.1 422.034 113.551 418.517 113.995C415 114.439 411.677 115.857 408.924 118.09L394.942 129.515L387.334 162.807Z" fill="#3E3BE8"/>
<path d="M450.434 276.064L450.593 275.852C459.088 264.585 447.469 236.683 445.712 232.637L453.612 230.297L452.235 215.256L451.571 208.55L457.713 202.717L457.734 202.568L461.958 172.509L467.485 152.614C469.568 145.093 469.612 137.153 467.612 129.609C465.613 122.065 461.641 115.189 456.107 109.687L444.809 98.4702L431.273 77.2835L408.578 76.6976L400.417 91.1949C392.828 92.7438 386.023 96.906 381.187 102.957C376.351 109.007 373.79 116.562 373.952 124.306L374.72 162.901L366.577 210.72L366.349 219.406L358.356 227.84L359.834 236.367L353.855 238.748L350.93 250.865C349.812 252.263 342.435 261.588 342.367 264.188C342.357 264.578 342.636 264.963 343.243 265.398C348.019 268.814 374.71 276.218 386.723 271.767C399.518 267.03 449.668 275.926 450.173 276.017L450.434 276.064Z" fill="#3E3BE8"/>
<path d="M417.943 70.2028C434.549 70.2028 448.01 56.7417 448.01 40.1366C448.01 23.5315 434.549 10.0704 417.943 10.0704C401.338 10.0704 387.877 23.5315 387.877 40.1366C387.877 56.7417 401.338 70.2028 417.943 70.2028Z" fill="#FFB8B8"/>
<path d="M414.276 70.6051C418.932 70.6777 423.585 70.3525 428.186 69.6329C432.746 68.7056 442.948 61.2299 445.791 56.7313C447.904 53.389 449.255 48.1696 450.017 44.3799C451.042 39.3649 451.003 34.1905 449.902 29.1916C448.801 24.1927 446.662 19.4809 443.624 15.3611C442.456 13.638 440.844 12.2624 438.959 11.38C438.792 11.3147 438.62 11.2568 438.446 11.2073C435.699 10.4845 433.231 8.95714 431.358 6.82135C430.995 6.38936 430.602 5.98407 430.18 5.60866C428.064 3.82246 425.554 2.56251 422.858 1.93181C418.505 0.766804 412.205 1.92322 404.134 5.37227C400.079 7.10514 395.644 6.47801 392.233 5.73799C392.042 5.70103 391.844 5.71482 391.66 5.77798C391.475 5.84115 391.311 5.9515 391.182 6.09804C389.731 7.46065 387.817 8.22337 385.826 8.23292C384.607 8.28647 383.328 9.97482 381.781 12.1765C381.43 12.6763 381.021 13.2596 380.726 13.6143L380.686 12.9327L379.996 13.6931C378.912 14.8882 378.148 16.3382 377.775 17.9081C377.402 19.478 377.433 21.1167 377.864 22.6717C378.294 24.2267 379.112 25.6473 380.24 26.8014C381.367 27.9554 382.769 28.8053 384.314 29.2718C385.54 29.5982 386.797 29.7984 388.064 29.8695C388.832 29.9386 389.626 30.01 390.387 30.142C392.829 30.6421 395.099 31.7669 396.977 33.4066C398.855 35.0463 400.275 37.1448 401.1 39.4974C401.295 40.0411 401.612 40.5329 402.027 40.9345C402.442 41.3362 402.944 41.6371 403.494 41.814C404.044 41.9909 404.627 42.039 405.199 41.9547C405.77 41.8704 406.315 41.6559 406.79 41.3278C407.583 40.7106 408.513 40.2942 409.501 40.1142C410.49 39.9343 411.507 39.996 412.466 40.2942C413.295 40.7552 413.941 41.4872 414.294 42.3675C414.724 43.3482 415.436 44.1788 416.339 44.7532C419.429 46.3465 419.642 53.4046 418.532 59.2884C417.463 64.9599 415.348 69.0628 413.39 69.2656C411.882 69.4215 411.71 69.5286 411.601 69.7952L411.503 70.0338L411.673 70.2571C412.505 70.5589 413.393 70.6776 414.276 70.6051Z" fill="#2F2E41"/>
<path d="M394.801 153.717L383.208 130.604C366.381 131.754 332.984 151.209 332.984 151.209L269.797 164.606C267.925 163.887 265.897 163.673 263.916 163.987C261.935 164.3 260.072 165.13 258.514 166.393C256.956 167.655 255.758 169.306 255.04 171.179C254.323 173.051 254.112 175.08 254.428 177.06C254.744 179.041 255.576 180.903 256.84 182.46C258.105 184.016 259.757 185.212 261.63 185.927C263.504 186.642 265.533 186.851 267.513 186.533C269.493 186.214 271.354 185.38 272.909 184.114L353.288 178.352L394.801 153.717Z" fill="#FFB8B8"/>
<path d="M390.125 157.512L420.401 135.012L425.735 115.793C426.768 112.016 426.724 108.026 425.608 104.272C424.493 100.519 422.349 97.1528 419.421 94.5536C415.427 91.0571 410.255 89.2074 404.95 89.3785C399.645 89.5497 394.603 91.729 390.843 95.4757C379.449 106.848 366.454 122.713 369.246 133.715L369.274 133.826L390.125 157.512Z" fill="#3E3BE8"/>
<path d="M352.646 217.692H271.635V228.494H352.646V217.692Z" fill="white"/>
<path d="M145.618 217.692H64.6075V228.494H145.618V217.692Z" fill="white"/>
<path d="M155.078 165.748V217.178C155.078 217.833 155.339 218.461 155.802 218.925C156.266 219.388 156.894 219.649 157.55 219.649H233.763C234.418 219.649 235.046 219.388 235.51 218.925C235.973 218.461 236.234 217.833 236.234 217.178V165.748C236.233 165.094 235.972 164.466 235.509 164.003C235.045 163.54 234.417 163.28 233.763 163.279H157.55C156.895 163.28 156.267 163.54 155.804 164.003C155.341 164.466 155.08 165.094 155.078 165.748Z" fill="#3F3D56"/>
<path d="M156.866 166.388V216.543C156.866 216.893 157.006 217.229 157.253 217.477C157.501 217.724 157.837 217.864 158.187 217.864H233.128C233.478 217.864 233.814 217.724 234.062 217.477C234.309 217.229 234.449 216.893 234.449 216.543V166.388C234.449 166.038 234.31 165.701 234.062 165.453C233.815 165.205 233.479 165.065 233.128 165.064H158.187C157.836 165.065 157.5 165.205 157.253 165.453C157.005 165.701 156.866 166.038 156.866 166.388Z" fill="#3E3BE8"/>
<path d="M153.484 227.208C153.624 227.383 153.801 227.524 154.003 227.621C154.205 227.717 154.426 227.767 154.65 227.766H236.256C236.479 227.765 236.7 227.715 236.901 227.619C237.103 227.523 237.28 227.383 237.421 227.21C237.561 227.037 237.661 226.834 237.714 226.617C237.766 226.4 237.77 226.174 237.724 225.956L236.457 219.939C236.405 219.693 236.292 219.465 236.129 219.275C235.965 219.084 235.757 218.937 235.522 218.848C235.353 218.781 235.172 218.747 234.99 218.747H155.912C155.73 218.747 155.549 218.781 155.379 218.848C155.145 218.937 154.936 219.084 154.773 219.275C154.61 219.465 154.497 219.693 154.444 219.939L153.177 225.956C153.132 226.174 153.136 226.4 153.189 226.616C153.243 226.833 153.343 227.035 153.484 227.208Z" fill="#2F2E41"/>
<path d="M232.189 221.339H234.117C234.279 221.339 234.41 221.208 234.41 221.046V220.124C234.41 219.962 234.279 219.831 234.117 219.831H232.189C232.028 219.831 231.896 219.962 231.896 220.124V221.046C231.896 221.208 232.028 221.339 232.189 221.339Z" fill="#3F3D56"/>
<path d="M227.163 221.339H229.09C229.252 221.339 229.383 221.208 229.383 221.046V220.124C229.383 219.962 229.252 219.831 229.09 219.831H227.163C227.001 219.831 226.87 219.962 226.87 220.124V221.046C226.87 221.208 227.001 221.339 227.163 221.339Z" fill="#3F3D56"/>
<path d="M222.136 221.339H224.063C224.225 221.339 224.356 221.208 224.356 221.046V220.124C224.356 219.962 224.225 219.831 224.063 219.831H222.136C221.974 219.831 221.843 219.962 221.843 220.124V221.046C221.843 221.208 221.974 221.339 222.136 221.339Z" fill="#3F3D56"/>
<path d="M217.109 221.339H219.036C219.198 221.339 219.329 221.208 219.329 221.046V220.124C219.329 219.962 219.198 219.831 219.036 219.831H217.109C216.947 219.831 216.816 219.962 216.816 220.124V221.046C216.816 221.208 216.947 221.339 217.109 221.339Z" fill="#3F3D56"/>
<path d="M212.082 221.339H214.01C214.171 221.339 214.302 221.208 214.302 221.046V220.124C214.302 219.962 214.171 219.831 214.01 219.831H212.082C211.92 219.831 211.789 219.962 211.789 220.124V221.046C211.789 221.208 211.92 221.339 212.082 221.339Z" fill="#3F3D56"/>
<path d="M207.055 221.339H208.983C209.144 221.339 209.276 221.208 209.276 221.046V220.124C209.276 219.962 209.144 219.831 208.983 219.831H207.055C206.893 219.831 206.762 219.962 206.762 220.124V221.046C206.762 221.208 206.893 221.339 207.055 221.339Z" fill="#3F3D56"/>
<path d="M202.028 221.339H203.956C204.118 221.339 204.249 221.208 204.249 221.046V220.124C204.249 219.962 204.118 219.831 203.956 219.831H202.028C201.867 219.831 201.735 219.962 201.735 220.124V221.046C201.735 221.208 201.867 221.339 202.028 221.339Z" fill="#3F3D56"/>
<path d="M197.001 221.339H198.929C199.091 221.339 199.222 221.208 199.222 221.046V220.124C199.222 219.962 199.091 219.831 198.929 219.831H197.001C196.84 219.831 196.708 219.962 196.708 220.124V221.046C196.708 221.208 196.84 221.339 197.001 221.339Z" fill="#3F3D56"/>
<path d="M191.975 221.339H193.902C194.064 221.339 194.195 221.208 194.195 221.046V220.124C194.195 219.962 194.064 219.831 193.902 219.831H191.975C191.813 219.831 191.682 219.962 191.682 220.124V221.046C191.682 221.208 191.813 221.339 191.975 221.339Z" fill="#3F3D56"/>
<path d="M186.948 221.339H188.875C189.037 221.339 189.168 221.208 189.168 221.046V220.124C189.168 219.962 189.037 219.831 188.875 219.831H186.948C186.786 219.831 186.655 219.962 186.655 220.124V221.046C186.655 221.208 186.786 221.339 186.948 221.339Z" fill="#3F3D56"/>
<path d="M181.921 221.339H183.848C184.01 221.339 184.141 221.208 184.141 221.046V220.124C184.141 219.962 184.01 219.831 183.848 219.831H181.921C181.759 219.831 181.628 219.962 181.628 220.124V221.046C181.628 221.208 181.759 221.339 181.921 221.339Z" fill="#3F3D56"/>
<path d="M176.894 221.339H178.821C178.983 221.339 179.114 221.208 179.114 221.046V220.124C179.114 219.962 178.983 219.831 178.821 219.831H176.894C176.732 219.831 176.601 219.962 176.601 220.124V221.046C176.601 221.208 176.732 221.339 176.894 221.339Z" fill="#3F3D56"/>
<path d="M171.867 221.339H173.795C173.956 221.339 174.088 221.208 174.088 221.046V220.124C174.088 219.962 173.956 219.831 173.795 219.831H171.867C171.705 219.831 171.574 219.962 171.574 220.124V221.046C171.574 221.208 171.705 221.339 171.867 221.339Z" fill="#3F3D56"/>
<path d="M166.84 221.339H168.768C168.93 221.339 169.061 221.208 169.061 221.046V220.124C169.061 219.962 168.93 219.831 168.768 219.831H166.84C166.678 219.831 166.547 219.962 166.547 220.124V221.046C166.547 221.208 166.678 221.339 166.84 221.339Z" fill="#3F3D56"/>
<path d="M161.813 221.339H163.741C163.903 221.339 164.034 221.208 164.034 221.046V220.124C164.034 219.962 163.903 219.831 163.741 219.831H161.813C161.652 219.831 161.52 219.962 161.52 220.124V221.046C161.52 221.208 161.652 221.339 161.813 221.339Z" fill="#3F3D56"/>
<path d="M156.787 221.339H158.714C158.876 221.339 159.007 221.208 159.007 221.046V220.124C159.007 219.962 158.876 219.831 158.714 219.831H156.787C156.625 219.831 156.494 219.962 156.494 220.124V221.046C156.494 221.208 156.625 221.339 156.787 221.339Z" fill="#3F3D56"/>
<path d="M232.249 223.853H234.176C234.338 223.853 234.469 223.722 234.469 223.56V222.638C234.469 222.476 234.338 222.345 234.176 222.345H232.249C232.087 222.345 231.956 222.476 231.956 222.638V223.56C231.956 223.722 232.087 223.853 232.249 223.853Z" fill="#3F3D56"/>
<path d="M227.222 223.853H229.15C229.311 223.853 229.442 223.722 229.442 223.56V222.638C229.442 222.476 229.311 222.345 229.15 222.345H227.222C227.06 222.345 226.929 222.476 226.929 222.638V223.56C226.929 223.722 227.06 223.853 227.222 223.853Z" fill="#3F3D56"/>
<path d="M222.195 223.853H224.123C224.284 223.853 224.416 223.722 224.416 223.56V222.638C224.416 222.476 224.284 222.345 224.123 222.345H222.195C222.033 222.345 221.902 222.476 221.902 222.638V223.56C221.902 223.722 222.033 223.853 222.195 223.853Z" fill="#3F3D56"/>
<path d="M217.168 223.853H219.096C219.258 223.853 219.389 223.722 219.389 223.56V222.638C219.389 222.476 219.258 222.345 219.096 222.345H217.168C217.006 222.345 216.875 222.476 216.875 222.638V223.56C216.875 223.722 217.006 223.853 217.168 223.853Z" fill="#3F3D56"/>
<path d="M212.141 223.853H214.069C214.231 223.853 214.362 223.722 214.362 223.56V222.638C214.362 222.476 214.231 222.345 214.069 222.345H212.141C211.98 222.345 211.848 222.476 211.848 222.638V223.56C211.848 223.722 211.98 223.853 212.141 223.853Z" fill="#3F3D56"/>
<path d="M207.115 223.853H209.042C209.204 223.853 209.335 223.722 209.335 223.56V222.638C209.335 222.476 209.204 222.345 209.042 222.345H207.115C206.953 222.345 206.822 222.476 206.822 222.638V223.56C206.822 223.722 206.953 223.853 207.115 223.853Z" fill="#3F3D56"/>
<path d="M202.088 223.853H204.015C204.177 223.853 204.308 223.722 204.308 223.56V222.638C204.308 222.476 204.177 222.345 204.015 222.345H202.088C201.926 222.345 201.795 222.476 201.795 222.638V223.56C201.795 223.722 201.926 223.853 202.088 223.853Z" fill="#3F3D56"/>
<path d="M197.061 223.853H198.988C199.15 223.853 199.281 223.722 199.281 223.56V222.638C199.281 222.476 199.15 222.345 198.988 222.345H197.061C196.899 222.345 196.768 222.476 196.768 222.638V223.56C196.768 223.722 196.899 223.853 197.061 223.853Z" fill="#3F3D56"/>
<path d="M192.034 223.853H193.962C194.123 223.853 194.254 223.722 194.254 223.56V222.638C194.254 222.476 194.123 222.345 193.962 222.345H192.034C191.872 222.345 191.741 222.476 191.741 222.638V223.56C191.741 223.722 191.872 223.853 192.034 223.853Z" fill="#3F3D56"/>
<path d="M187.007 223.853H188.935C189.096 223.853 189.228 223.722 189.228 223.56V222.638C189.228 222.476 189.096 222.345 188.935 222.345H187.007C186.845 222.345 186.714 222.476 186.714 222.638V223.56C186.714 223.722 186.845 223.853 187.007 223.853Z" fill="#3F3D56"/>
<path d="M181.98 223.853H183.908C184.07 223.853 184.201 223.722 184.201 223.56V222.638C184.201 222.476 184.07 222.345 183.908 222.345H181.98C181.818 222.345 181.687 222.476 181.687 222.638V223.56C181.687 223.722 181.818 223.853 181.98 223.853Z" fill="#3F3D56"/>
<path d="M176.953 223.853H178.881C179.043 223.853 179.174 223.722 179.174 223.56V222.638C179.174 222.476 179.043 222.345 178.881 222.345H176.953C176.792 222.345 176.66 222.476 176.66 222.638V223.56C176.66 223.722 176.792 223.853 176.953 223.853Z" fill="#3F3D56"/>
<path d="M171.927 223.853H173.854C174.016 223.853 174.147 223.722 174.147 223.56V222.638C174.147 222.476 174.016 222.345 173.854 222.345H171.927C171.765 222.345 171.634 222.476 171.634 222.638V223.56C171.634 223.722 171.765 223.853 171.927 223.853Z" fill="#3F3D56"/>
<path d="M166.9 223.853H168.827C168.989 223.853 169.12 223.722 169.12 223.56V222.638C169.12 222.476 168.989 222.345 168.827 222.345H166.9C166.738 222.345 166.607 222.476 166.607 222.638V223.56C166.607 223.722 166.738 223.853 166.9 223.853Z" fill="#3F3D56"/>
<path d="M161.873 223.853H163.8C163.962 223.853 164.093 223.722 164.093 223.56V222.638C164.093 222.476 163.962 222.345 163.8 222.345H161.873C161.711 222.345 161.58 222.476 161.58 222.638V223.56C161.58 223.722 161.711 223.853 161.873 223.853Z" fill="#3F3D56"/>
<path d="M156.846 223.853H158.773C158.935 223.853 159.066 223.722 159.066 223.56V222.638C159.066 222.476 158.935 222.345 158.773 222.345H156.846C156.684 222.345 156.553 222.476 156.553 222.638V223.56C156.553 223.722 156.684 223.853 156.846 223.853Z" fill="#3F3D56"/>
<path d="M190.526 226.869H210.047C210.209 226.869 210.34 226.738 210.34 226.576V225.654C210.34 225.492 210.209 225.361 210.047 225.361H190.526C190.364 225.361 190.233 225.492 190.233 225.654V226.576C190.233 226.738 190.364 226.869 190.526 226.869Z" fill="#3F3D56"/>
</g>
<defs>
<clipPath id="clip0_6_5">
<rect width="500" height="379.917" fill="white"/>
</clipPath>
</defs>
</svg>
