<svg id="visual" viewBox="0 0 900 600" width="900" height="600" xmlns="http://www.w3.org/2000/svg" xmlns:xlink="http://www.w3.org/1999/xlink" version="1.1"><rect x="0" y="0" width="900" height="600" fill="#FFFFFF"></rect><path d="M0 457L30 461.5C60 466 120 475 180 478.3C240 481.7 300 479.3 360 475C420 470.7 480 464.3 540 467.8C600 471.3 660 484.7 720 488.7C780 492.7 840 487.3 870 484.7L900 482L900 601L870 601C840 601 780 601 720 601C660 601 600 601 540 601C480 601 420 601 360 601C300 601 240 601 180 601C120 601 60 601 30 601L0 601Z" fill="#3e3be8"></path><path d="M0 515L30 510.7C60 506.3 120 497.7 180 497.8C240 498 300 507 360 513.2C420 519.3 480 522.7 540 525.3C600 528 660 530 720 520.3C780 510.7 840 489.3 870 478.7L900 468L900 601L870 601C840 601 780 601 720 601C660 601 600 601 540 601C480 601 420 601 360 601C300 601 240 601 180 601C120 601 60 601 30 601L0 601Z" fill="#41409f"></path><path d="M0 527L30 529.3C60 531.7 120 536.3 180 533.2C240 530 300 519 360 522.7C420 526.3 480 544.7 540 554.5C600 564.3 660 565.7 720 559C780 552.3 840 537.7 870 530.3L900 523L900 601L870 601C840 601 780 601 720 601C660 601 600 601 540 601C480 601 420 601 360 601C300 601 240 601 180 601C120 601 60 601 30 601L0 601Z" fill="#3f3d56"></path></svg>